<svg width="36" height="36" viewBox="0 0 36 36" fill="none" xmlns="http://www.w3.org/2000/svg">
<path d="M31.2752 27.8496C32.6112 26.7611 33.7108 25.1974 34.3408 23.3046C34.9821 21.3668 35.0271 19.4036 34.5771 17.6936C34.4843 17.3393 34.1018 14.2174 34.1102 13.8461C34.1637 10.9999 32.9824 8.43488 30.9349 7.12425C30.4315 6.80082 26.0215 3.18957 25.6193 2.78738C24.9837 2.15175 24.2243 1.66238 23.3552 1.36707C22.4665 1.06613 21.5552 1.14207 20.6383 1.128C12.1868 1.01269 8.06084 3.15019 6.44928 5.15832C6.1849 5.48738 4.09803 8.55582 3.92928 8.73019C2.95615 9.7455 2.16021 11.0393 1.6624 12.5411C1.11677 14.1836 1.00146 15.843 1.25177 17.3533C1.31365 17.7189 1.78334 21.8702 1.78334 22.2161C1.80303 24.9499 2.96177 27.3939 4.93615 28.668C5.40584 28.9718 9.1999 33.3086 12.4033 34.3943C15.6068 35.4799 21.4202 34.383 21.8674 34.383C27.1155 34.3914 31.0193 28.0605 31.2752 27.8496Z" fill="url(#paint0_linear_94_24209)"/>
<path d="M23.7881 8.91871C24.8203 10.5443 23.2284 11.3993 21.6422 11.194C20.3962 11.0337 19.8478 10.4318 20.0812 9.46996C20.34 8.3984 20.7112 6.38184 21.9656 6.38184C23.22 6.38184 23.2594 8.08621 23.7881 8.91871Z" fill="url(#paint1_linear_94_24209)"/>
<path d="M23.4394 8.89633C24.2606 10.1929 22.9922 10.8735 21.7294 10.7104C20.7366 10.5838 20.3006 10.1029 20.4863 9.33789C20.6944 8.48289 20.9869 6.87696 21.9881 6.87696C22.9894 6.87414 23.0175 8.23258 23.4394 8.89633Z" fill="url(#paint2_radial_94_24209)"/>
<path d="M9.85501 9.56827C10.8422 10.7214 9.69751 11.568 8.43751 11.5876C7.44751 11.6017 6.95251 11.1939 7.02563 10.4176C7.1072 9.55139 7.16907 7.93702 8.15063 7.79358C9.12938 7.65296 9.34876 8.97764 9.85501 9.56827Z" fill="url(#paint3_linear_94_24209)"/>
<path d="M9.58222 9.59054C10.3697 10.5102 9.45566 11.1824 8.45159 11.1993C7.66128 11.2105 7.26753 10.8843 7.32659 10.2684C7.39128 9.57648 7.43909 8.29117 8.22378 8.17867C9.00284 8.06336 9.17722 9.11804 9.58222 9.59054Z" fill="url(#paint4_radial_94_24209)"/>
<path d="M17.519 29.3626C17.4937 31.1711 15.8034 31.0248 14.6615 30.0489C13.7643 29.2811 13.6434 28.5273 14.3212 27.8917C15.0777 27.1829 16.4052 25.7879 17.3924 26.4348C18.3796 27.0789 17.5331 28.4345 17.519 29.3626Z" fill="url(#paint5_linear_94_24209)"/>
<path d="M17.2574 29.1657C17.2377 30.6085 15.8905 30.4904 14.9793 29.7113C14.2649 29.101 14.1693 28.4991 14.7093 27.9929C15.3111 27.4276 16.3686 26.3166 17.1561 26.8313C17.9436 27.346 17.2686 28.426 17.2574 29.1657Z" fill="url(#paint6_radial_94_24209)"/>
<path d="M27.8044 22.8294C29.4863 24.2947 28.0013 25.7656 26.1731 26.0637C24.7359 26.2972 23.9316 25.8078 23.8725 24.6659C23.8078 23.3891 23.5519 21.0294 24.9469 20.6159C26.3419 20.2025 26.9438 22.0784 27.8044 22.8294Z" fill="url(#paint7_linear_94_24209)"/>
<path d="M27.4106 22.9196C28.7493 24.0868 27.5653 25.2596 26.1112 25.4958C24.9665 25.6815 24.3253 25.2905 24.2774 24.3821C24.2268 23.364 24.0215 21.4852 25.1353 21.1533C26.249 20.8215 26.7243 22.3205 27.4106 22.9196Z" fill="url(#paint8_radial_94_24209)"/>
<path d="M16.8553 17.449C17.2631 19.7553 15.0778 19.9774 13.3903 19.0156C12.0628 18.259 11.7281 17.3281 12.4341 16.3578C13.2216 15.2721 14.5687 13.1768 15.9834 13.759C17.3925 14.3384 16.6444 16.2678 16.8553 17.449Z" fill="url(#paint9_linear_94_24209)"/>
<path d="M16.4728 17.2607C16.7962 19.0972 15.0581 19.2744 13.7109 18.5094C12.6534 17.9075 12.3862 17.165 12.9487 16.3888C13.5787 15.5225 14.6503 13.8547 15.7781 14.316C16.9031 14.7829 16.3068 16.3185 16.4728 17.2607Z" fill="url(#paint10_radial_94_24209)"/>
<path d="M8.37553 22.3567C9.59334 23.6448 8.30521 24.6967 6.83709 24.7895C5.68115 24.8626 5.08209 24.4154 5.12428 23.507C5.17209 22.4917 5.14959 20.6045 6.28584 20.3851C7.42209 20.1629 7.75115 21.6957 8.37553 22.3567Z" fill="url(#paint11_linear_94_24209)"/>
<path d="M8.05768 22.3962C9.02799 23.4228 8.00143 24.2609 6.83143 24.3368C5.91174 24.3959 5.43362 24.0387 5.46737 23.3131C5.50393 22.5031 5.48706 21.0012 6.39268 20.824C7.29549 20.6497 7.55987 21.8703 8.05768 22.3962Z" fill="url(#paint12_radial_94_24209)"/>
<path d="M30.1612 15.978C31.064 16.9315 30.1078 17.7105 29.0221 17.7809C28.1671 17.8371 27.7228 17.5024 27.7537 16.8302C27.7875 16.0793 27.7734 14.6815 28.6143 14.5184C29.4525 14.3524 29.6971 15.4887 30.1612 15.978Z" fill="url(#paint13_linear_94_24209)"/>
<path d="M29.925 16.0062C30.6422 16.7656 29.8828 17.3871 29.0166 17.4434C28.3359 17.4884 27.9816 17.2212 28.0069 16.6868C28.035 16.0878 28.0209 14.974 28.6931 14.8446C29.3597 14.7125 29.5566 15.6153 29.925 16.0062Z" fill="url(#paint14_radial_94_24209)"/>
<g opacity="0.2">
<path d="M19.9743 1.96875C20.1881 1.96875 20.4074 1.97156 20.6268 1.97438C20.7168 1.97438 20.8096 1.97719 20.8996 1.97719H21.164H21.42C21.9712 1.97719 22.5534 1.99125 23.0793 2.17125C23.8049 2.41594 24.4546 2.82656 25.0171 3.38906C25.4418 3.81656 29.8828 7.46156 30.4762 7.84125C32.2425 8.97187 33.3112 11.2697 33.2634 13.8347C33.2549 14.2734 33.6431 17.4741 33.7584 17.91C34.1803 19.5159 34.1015 21.3384 33.5362 23.04C32.9765 24.7247 32.0118 26.1619 30.7406 27.1969C30.6253 27.2897 30.5521 27.3909 30.3356 27.6863C27.4865 31.5731 24.6403 33.5419 21.8643 33.5419C21.7378 33.5419 21.5831 33.5616 21.1134 33.6263C20.1431 33.7584 18.1265 34.0341 16.1493 34.0341C14.6924 34.0341 13.5225 33.8878 12.6731 33.5981C10.3528 32.8106 7.5937 30.0797 6.2662 28.7663C5.7487 28.2516 5.56026 28.0688 5.39432 27.9619C3.6787 26.8538 2.6437 24.7022 2.62682 22.2131C2.62401 21.7941 2.14307 17.5753 2.08401 17.2181C1.84776 15.7922 1.97714 14.2678 2.46089 12.8109C2.90245 11.4806 3.61964 10.2741 4.53651 9.32063C4.65182 9.2025 4.87682 8.88469 5.9512 7.335C6.41808 6.66281 7.00026 5.82469 7.10432 5.6925C8.00432 4.5675 11.0587 1.96875 19.9743 1.96875ZM19.9743 1.125C11.9671 1.125 8.01839 3.20344 6.4462 5.15812C6.18183 5.48719 4.09495 8.55563 3.9262 8.73C2.95307 9.74531 2.15714 11.0391 1.65932 12.5409C1.11651 14.1834 1.0012 15.8428 1.25151 17.3531C1.31339 17.7188 1.78307 21.87 1.78307 22.2159C1.80276 24.9497 2.96151 27.3937 4.93589 28.6678C5.40557 28.9716 9.19964 33.3084 12.4031 34.3941C13.4634 34.7541 14.8078 34.875 16.1521 34.875C18.8662 34.875 21.5662 34.3828 21.8671 34.3828C21.8699 34.3828 21.8728 34.3828 21.8756 34.3828C27.1181 34.3828 31.0162 28.0575 31.2749 27.8494C32.6109 26.7609 33.7106 25.1972 34.3406 23.3044C34.9818 21.3666 35.0268 19.4034 34.5768 17.6934C34.484 17.3391 34.1015 14.2172 34.11 13.8459C34.1634 10.9997 32.9821 8.43469 30.9346 7.12406C30.4312 6.80062 26.0212 3.18937 25.619 2.78719C24.9834 2.15156 24.224 1.66219 23.3549 1.36688C22.7193 1.15031 22.0724 1.12781 21.4228 1.12781C21.2484 1.12781 21.074 1.13062 20.9025 1.13062C20.8153 1.13062 20.7281 1.13063 20.6409 1.12781C20.4159 1.12781 20.1937 1.125 19.9743 1.125Z" fill="#434343"/>
</g>
<defs>
<linearGradient id="paint0_linear_94_24209" x1="12.7194" y1="4.79244" x2="23.747" y2="32.4463" gradientUnits="userSpaceOnUse">
<stop offset="0.275" stop-color="#FECC81"/>
<stop offset="0.4148" stop-color="#FDBE64"/>
<stop offset="0.5584" stop-color="#FCB44B"/>
<stop offset="0.7038" stop-color="#FBAC38"/>
<stop offset="0.8503" stop-color="#FAA82D"/>
<stop offset="1" stop-color="#FAA629"/>
</linearGradient>
<linearGradient id="paint1_linear_94_24209" x1="19.7207" y1="6.86263" x2="23.8815" y2="11.0234" gradientUnits="userSpaceOnUse">
<stop offset="0.0609" stop-color="#D38A29"/>
<stop offset="0.2381" stop-color="#D48C2B"/>
<stop offset="0.4115" stop-color="#D89232"/>
<stop offset="0.5835" stop-color="#DE9C41"/>
<stop offset="0.7536" stop-color="#E6AC58"/>
<stop offset="0.895" stop-color="#F0BD71"/>
</linearGradient>
<radialGradient id="paint2_radial_94_24209" cx="0" cy="0" r="1" gradientUnits="userSpaceOnUse" gradientTransform="translate(22.0294 8.27592) scale(2.45062)">
<stop offset="0.1093" stop-color="#8E513C"/>
<stop offset="0.1202" stop-color="#8D503B"/>
<stop offset="0.784" stop-color="#6C3825"/>
</radialGradient>
<linearGradient id="paint3_linear_94_24209" x1="6.44924" y1="8.4218" x2="10.1655" y2="11.2009" gradientUnits="userSpaceOnUse">
<stop offset="0.0609" stop-color="#D38A29"/>
<stop offset="0.2381" stop-color="#D48C2B"/>
<stop offset="0.4115" stop-color="#D89232"/>
<stop offset="0.5835" stop-color="#DE9C41"/>
<stop offset="0.7536" stop-color="#E6AC58"/>
<stop offset="0.895" stop-color="#F0BD71"/>
</linearGradient>
<radialGradient id="paint4_radial_94_24209" cx="0" cy="0" r="1" gradientUnits="userSpaceOnUse" gradientTransform="translate(8.41044 9.26459) rotate(-8.21032) scale(1.9326)">
<stop offset="0.1093" stop-color="#8E513C"/>
<stop offset="0.1202" stop-color="#8D503B"/>
<stop offset="0.784" stop-color="#6C3825"/>
</radialGradient>
<linearGradient id="paint5_linear_94_24209" x1="15.3807" y1="25.6558" x2="16.5112" y2="31.0672" gradientUnits="userSpaceOnUse">
<stop offset="0.0609" stop-color="#D38A29"/>
<stop offset="0.2381" stop-color="#D48C2B"/>
<stop offset="0.4115" stop-color="#D89232"/>
<stop offset="0.5835" stop-color="#DE9C41"/>
<stop offset="0.7536" stop-color="#E6AC58"/>
<stop offset="0.895" stop-color="#F0BD71"/>
</linearGradient>
<radialGradient id="paint6_radial_94_24209" cx="0" cy="0" r="1" gradientUnits="userSpaceOnUse" gradientTransform="translate(16.4686 27.9543) rotate(33.2006) scale(2.30234)">
<stop offset="0.1093" stop-color="#8E513C"/>
<stop offset="0.1202" stop-color="#8D503B"/>
<stop offset="0.784" stop-color="#6C3825"/>
</radialGradient>
<linearGradient id="paint7_linear_94_24209" x1="22.6115" y1="21.8873" x2="28.6015" y2="25.1349" gradientUnits="userSpaceOnUse">
<stop offset="0.0609" stop-color="#D38A29"/>
<stop offset="0.2381" stop-color="#D48C2B"/>
<stop offset="0.4115" stop-color="#D89232"/>
<stop offset="0.5835" stop-color="#DE9C41"/>
<stop offset="0.7536" stop-color="#E6AC58"/>
<stop offset="0.895" stop-color="#F0BD71"/>
</linearGradient>
<radialGradient id="paint8_radial_94_24209" cx="0" cy="0" r="1" gradientUnits="userSpaceOnUse" gradientTransform="translate(25.6399 22.6954) rotate(-16.5357) scale(2.83771)">
<stop offset="0.1093" stop-color="#8E513C"/>
<stop offset="0.1202" stop-color="#8D503B"/>
<stop offset="0.784" stop-color="#6C3825"/>
</radialGradient>
<linearGradient id="paint9_linear_94_24209" x1="13.2352" y1="13.2546" x2="15.9871" y2="19.8565" gradientUnits="userSpaceOnUse">
<stop offset="0.0609" stop-color="#D38A29"/>
<stop offset="0.2381" stop-color="#D48C2B"/>
<stop offset="0.4115" stop-color="#D89232"/>
<stop offset="0.5835" stop-color="#DE9C41"/>
<stop offset="0.7536" stop-color="#E6AC58"/>
<stop offset="0.895" stop-color="#F0BD71"/>
</linearGradient>
<radialGradient id="paint10_radial_94_24209" cx="0" cy="0" r="1" gradientUnits="userSpaceOnUse" gradientTransform="translate(15.1764 15.9112) rotate(22.3717) scale(2.97878)">
<stop offset="0.1093" stop-color="#8E513C"/>
<stop offset="0.1202" stop-color="#8D503B"/>
<stop offset="0.784" stop-color="#6C3825"/>
</radialGradient>
<linearGradient id="paint11_linear_94_24209" x1="4.34177" y1="21.2128" x2="8.83214" y2="24.2424" gradientUnits="userSpaceOnUse">
<stop offset="0.0609" stop-color="#D38A29"/>
<stop offset="0.2381" stop-color="#D48C2B"/>
<stop offset="0.4115" stop-color="#D89232"/>
<stop offset="0.5835" stop-color="#DE9C41"/>
<stop offset="0.7536" stop-color="#E6AC58"/>
<stop offset="0.895" stop-color="#F0BD71"/>
</linearGradient>
<radialGradient id="paint12_radial_94_24209" cx="0" cy="0" r="1" gradientUnits="userSpaceOnUse" gradientTransform="translate(6.67607 22.0847) rotate(-10.9931) scale(2.25591)">
<stop offset="0.1093" stop-color="#8E513C"/>
<stop offset="0.1202" stop-color="#8D503B"/>
<stop offset="0.784" stop-color="#6C3825"/>
</radialGradient>
<linearGradient id="paint13_linear_94_24209" x1="27.1734" y1="15.1299" x2="30.4991" y2="17.3737" gradientUnits="userSpaceOnUse">
<stop offset="0.0609" stop-color="#D38A29"/>
<stop offset="0.2381" stop-color="#D48C2B"/>
<stop offset="0.4115" stop-color="#D89232"/>
<stop offset="0.5835" stop-color="#DE9C41"/>
<stop offset="0.7536" stop-color="#E6AC58"/>
<stop offset="0.895" stop-color="#F0BD71"/>
</linearGradient>
<radialGradient id="paint14_radial_94_24209" cx="0" cy="0" r="1" gradientUnits="userSpaceOnUse" gradientTransform="translate(28.9023 15.7756) rotate(-10.9931) scale(1.67079)">
<stop offset="0.1093" stop-color="#8E513C"/>
<stop offset="0.1202" stop-color="#8D503B"/>
<stop offset="0.784" stop-color="#6C3825"/>
</radialGradient>
</defs>
</svg>
