<svg width="25" height="24" viewBox="0 0 25 24" fill="none" xmlns="http://www.w3.org/2000/svg">
<path fill-rule="evenodd" clip-rule="evenodd" d="M4.17249 10.3178C4.17249 5.71789 8.01637 2 12.6659 2C17.3286 2 21.1725 5.71789 21.1725 10.3178C21.1725 12.6357 20.3295 14.7876 18.942 16.6116C17.4113 18.6235 15.5246 20.3765 13.401 21.7524C12.915 22.0704 12.4764 22.0944 11.9429 21.7524C9.80722 20.3765 7.92057 18.6235 6.40299 16.6116C5.01447 14.7876 4.17249 12.6357 4.17249 10.3178ZM9.86671 10.5768C9.86671 12.1177 11.1241 13.3297 12.6659 13.3297C14.2087 13.3297 15.4783 12.1177 15.4783 10.5768C15.4783 9.0478 14.2087 7.77683 12.6659 7.77683C11.1241 7.77683 9.86671 9.0478 9.86671 10.5768Z" fill="#588157"/>
</svg>
