<svg width="45" height="52" viewBox="0 0 45 52" fill="none" xmlns="http://www.w3.org/2000/svg">
<path fill-rule="evenodd" clip-rule="evenodd" d="M26.7757 44.5943C37.1573 42.5971 45 33.4644 45 22.5C45 10.0736 34.9264 0 22.5 0C10.0736 0 0 10.0736 0 22.5C0 33.4644 7.84267 42.5971 18.2243 44.5943L22.5 52L26.7757 44.5943Z" fill="#588157"/>
<path d="M7.29003 15.3398L9.94213 11L30.7981 11.0429L39.0004 33.6223V34.0728H31.9399L30.7049 31.0591H23.295L22.2231 34.0728H7V33.5297L14.835 15.4249L7.29003 15.3398Z" fill="white"/>
<path d="M30.2004 11.8773H29.7443L27.4431 15.4703H21.4313L14.7949 33.1745H21.5505L22.7018 30.0817H31.2973L32.3819 33.1383H37.8297L30.2004 11.8773Z" fill="#588157"/>
<path d="M28.9652 20.5673H27.9416L28.7876 24.0037L27.1582 24.0559V25.1736H30.2186L28.9652 20.5673Z" fill="white"/>
</svg>
