<svg width="44" height="44" viewBox="0 0 44 44" fill="none" xmlns="http://www.w3.org/2000/svg">
<path d="M38.7052 24.7911L37.5637 23.7081C36.4018 22.6056 34.7676 22.1175 33.1912 22.4023L31.6713 22.6771C30.2853 22.9275 29.0581 23.7538 28.3043 24.9438L26.205 28.2588C25.3366 29.6301 23.8649 30.4384 22.2489 30.4384C22.2084 30.4384 22.1676 30.4379 22.1269 30.437C20.4636 30.3952 18.9818 29.5052 18.1634 28.0565L16.4044 24.9429C15.8166 23.9025 14.8755 23.1021 13.7544 22.6891L12.4958 22.2256C10.8225 21.609 8.9267 21.9289 7.54824 23.0601L5.48106 24.7565C4.87385 25.2542 4.5257 25.9903 4.5257 26.7755V38.9692C4.5257 39.2729 4.77197 39.5192 5.0757 39.5192H38.9695C39.2733 39.5192 39.5195 39.2729 39.5195 38.9692V26.6863C39.5195 25.973 39.2227 25.2823 38.7053 24.7913L38.7052 24.7911ZM29.2339 25.5321C29.8234 24.6013 30.7832 23.9553 31.8673 23.7594L33.3871 23.4846C34.6195 23.2619 35.8982 23.6435 36.807 24.5058L37.9484 25.5888C38.2477 25.8731 38.4196 26.2731 38.4196 26.6861V26.938H28.3436L29.2339 25.5321ZM6.17849 25.6063L8.24567 23.9099C9.32354 23.0252 10.8063 22.775 12.1153 23.2572L13.3739 23.7208C14.2507 24.0439 14.9868 24.6698 15.4465 25.4835L16.268 26.9381H5.62566V26.7755C5.62566 26.3208 5.82724 25.8948 6.17861 25.6063L6.17849 25.6063ZM5.62554 38.4191V28.0376H16.8895L17.2053 28.5967C18.2159 30.3854 20.0452 31.4839 22.0989 31.5355C24.156 31.5875 26.0348 30.5818 27.134 28.8464L27.6465 28.0376H38.4195V38.4191L5.62554 38.4191Z" fill="#588157" stroke="#588157" stroke-width="0.4"/>
<path d="M18.9197 19.6739C18.9918 19.6874 19.0648 19.6938 19.1372 19.6938C19.3916 19.6938 19.6425 19.613 19.8497 19.4607C20.1159 19.2651 20.2912 18.9645 20.3307 18.6365L20.4059 18.0114C20.5817 16.5477 20.2018 15.0844 19.3363 13.891C18.4708 12.6977 17.1979 11.882 15.7522 11.5945L15.694 11.583C15.3669 11.5179 15.0249 11.5928 14.7548 11.7887C14.485 11.9844 14.3075 12.2865 14.2677 12.6175L14.1926 13.2428C13.8267 16.2892 15.9032 19.1138 18.9196 19.6737L18.9197 19.6739ZM15.2848 13.3743L15.3599 12.7487C15.3643 12.7126 15.3844 12.691 15.4006 12.6792C15.4137 12.6699 15.4333 12.6598 15.4588 12.6598C15.4652 12.6598 15.4721 12.6603 15.4792 12.6618L15.5374 12.6733C16.7106 12.9066 17.7436 13.5683 18.4458 14.5367C19.148 15.5052 19.4564 16.6925 19.3136 17.8802L19.2384 18.5053C19.234 18.5409 19.2141 18.5625 19.1981 18.5743C19.1822 18.5861 19.1557 18.5988 19.1203 18.5922C16.6728 18.1382 14.9879 15.8461 15.2848 13.3743Z" fill="#588157" stroke="#588157" stroke-width="0.4"/>
<path d="M21.8878 12.488C21.9946 12.8008 22.2288 13.0579 22.5299 13.1939C22.6863 13.2644 22.8552 13.2997 23.0241 13.2997C23.1808 13.2997 23.3374 13.2693 23.484 13.2084C26.3177 12.0325 27.7602 8.83737 26.768 5.93394L26.5642 5.33777C26.4565 5.02226 26.2198 4.76396 25.9151 4.62868C25.6104 4.49341 25.26 4.49143 24.9538 4.62303L24.8995 4.64636C23.5451 5.22877 22.47 6.29146 21.8721 7.63893C21.2739 8.98646 21.2072 10.4967 21.684 11.8916L21.8878 12.488ZM22.8778 8.08582C23.363 6.99242 24.2354 6.13014 25.3344 5.65746L25.3886 5.63413C25.4029 5.62799 25.4161 5.62578 25.4284 5.62578C25.4446 5.62578 25.4588 5.62996 25.4694 5.63462C25.4878 5.64273 25.5121 5.65967 25.5237 5.69404L25.7275 6.29021C26.5326 8.6459 25.3621 11.2385 23.0626 12.1926C23.0295 12.2064 23.0008 12.1995 22.9826 12.1914C22.9644 12.1833 22.9404 12.1663 22.9288 12.1322L22.7253 11.5365C22.3383 10.4046 22.3926 9.17916 22.8778 8.08582Z" fill="#588157" stroke="#588157" stroke-width="0.4"/>
<path d="M26.7391 16.1162L26.2384 16.2223C23.7472 16.7507 22.0839 19.1387 22.452 21.6587C22.495 21.9523 22.6593 22.2182 22.9028 22.3879C23.0848 22.5146 23.3013 22.5812 23.5206 22.5812C23.595 22.5812 23.6694 22.5736 23.743 22.5578L24.2434 22.4518C25.4404 22.1979 26.4884 21.5075 27.194 20.5078C27.8997 19.5083 28.1997 18.2897 28.0382 17.077L28.0318 17.0291C27.9923 16.7322 27.8295 16.4631 27.5847 16.2903C27.3404 16.1174 27.0322 16.0538 26.7391 16.1162ZM24.0151 21.3758L23.5373 21.4772C23.2662 19.5382 24.5489 17.7053 26.4667 17.2987L26.9448 17.1973L26.948 17.2218C27.2041 19.1478 25.9158 20.9727 24.0151 21.3758Z" fill="#588157" stroke="#588157" stroke-width="0.4"/>
<path d="M10.1637 31.0629C10.4674 31.0629 10.7137 30.8166 10.7137 30.5129C10.7137 30.2092 10.4674 29.9629 10.1637 29.9629H8.03242C7.7287 29.9629 7.48242 30.2092 7.48242 30.5129C7.48242 30.8166 7.7287 31.0629 8.03242 31.0629H10.1637Z" fill="#588157" stroke="#588157" stroke-width="0.4"/>
<path d="M13.5321 32.9191H11.4009C11.0972 32.9191 10.8509 33.1653 10.8509 33.4691C10.8509 33.7728 11.0972 34.0191 11.4009 34.0191H13.5321C13.8359 34.0191 14.0821 33.7728 14.0821 33.4691C14.0821 33.1653 13.8359 32.9191 13.5321 32.9191Z" fill="#588157" stroke="#588157" stroke-width="0.4"/>
<path d="M10.5759 35.8752H8.44471C8.14099 35.8752 7.89471 36.1215 7.89471 36.4252C7.89471 36.729 8.14099 36.9752 8.44471 36.9752H10.5759C10.8797 36.9752 11.1259 36.729 11.1259 36.4252C11.1259 36.1215 10.8797 35.8752 10.5759 35.8752Z" fill="#588157" stroke="#588157" stroke-width="0.4"/>
<path d="M13.9445 31.0629H16.0757C16.3794 31.0629 16.6257 30.8166 16.6257 30.5129C16.6257 30.2092 16.3794 29.9629 16.0757 29.9629H13.9445C13.6407 29.9629 13.3945 30.2092 13.3945 30.5129C13.3945 30.8166 13.6407 31.0629 13.9445 31.0629Z" fill="#588157" stroke="#588157" stroke-width="0.4"/>
<path d="M19.5822 32.9191H17.4509C17.1472 32.9191 16.9009 33.1653 16.9009 33.4691C16.9009 33.7728 17.1472 34.0191 17.4509 34.0191H19.5822C19.8859 34.0191 20.1322 33.7728 20.1322 33.4691C20.1322 33.1653 19.8859 32.9191 19.5822 32.9191Z" fill="#588157" stroke="#588157" stroke-width="0.4"/>
<path d="M16.9698 35.8752H14.8386C14.5348 35.8752 14.2886 36.1215 14.2886 36.4252C14.2886 36.729 14.5348 36.9752 14.8386 36.9752H16.9698C17.2735 36.9752 17.5198 36.729 17.5198 36.4252C17.5198 36.1215 17.2735 35.8752 16.9698 35.8752Z" fill="#588157" stroke="#588157" stroke-width="0.4"/>
<path d="M28.313 31.0629H30.4442C30.748 31.0629 30.9942 30.8166 30.9942 30.5129C30.9942 30.2092 30.748 29.9629 30.4442 29.9629H28.313C28.0093 29.9629 27.763 30.2092 27.763 30.5129C27.763 30.8166 28.0093 31.0629 28.313 31.0629Z" fill="#588157" stroke="#588157" stroke-width="0.4"/>
<path d="M33.5383 33.4691C33.5383 33.1653 33.292 32.9191 32.9883 32.9191H30.8571C30.5533 32.9191 30.3071 33.1653 30.3071 33.4691C30.3071 33.7728 30.5533 34.0191 30.8571 34.0191H32.9883C33.292 34.0191 33.5383 33.7728 33.5383 33.4691Z" fill="#588157" stroke="#588157" stroke-width="0.4"/>
<path d="M29.1383 35.8752H27.0071C26.7034 35.8752 26.4571 36.1215 26.4571 36.4252C26.4571 36.729 26.7034 36.9752 27.0071 36.9752H29.1383C29.4421 36.9752 29.6883 36.729 29.6883 36.4252C29.6883 36.1215 29.4421 35.8752 29.1383 35.8752Z" fill="#588157" stroke="#588157" stroke-width="0.4"/>
<path d="M36.4945 29.9629H34.3632C34.0595 29.9629 33.8132 30.2092 33.8132 30.5129C33.8132 30.8166 34.0595 31.0629 34.3632 31.0629H36.4945C36.7982 31.0629 37.0445 30.8166 37.0445 30.5129C37.0445 30.2092 36.7982 29.9629 36.4945 29.9629Z" fill="#588157" stroke="#588157" stroke-width="0.4"/>
<path d="M34.8445 35.8752H32.7133C32.4095 35.8752 32.1633 36.1215 32.1633 36.4252C32.1633 36.729 32.4095 36.9752 32.7133 36.9752H34.8445C35.1482 36.9752 35.3945 36.729 35.3945 36.4252C35.3945 36.1215 35.1482 35.8752 34.8445 35.8752Z" fill="#588157" stroke="#588157" stroke-width="0.4"/>
<path d="M27.076 33.4691C27.076 33.1653 26.8297 32.9191 26.526 32.9191H24.3947C24.091 32.9191 23.8447 33.1653 23.8447 33.4691C23.8447 33.7728 24.091 34.0191 24.3947 34.0191H26.526C26.8297 34.0191 27.076 33.7728 27.076 33.4691Z" fill="#588157" stroke="#588157" stroke-width="0.4"/>
<path d="M23.0537 35.8752H20.9225C20.6188 35.8752 20.3725 36.1215 20.3725 36.4252C20.3725 36.729 20.6188 36.9752 20.9225 36.9752H23.0537C23.3575 36.9752 23.6037 36.729 23.6037 36.4252C23.6037 36.1215 23.3575 35.8752 23.0537 35.8752Z" fill="#588157" stroke="#588157" stroke-width="0.4"/>
</svg>
