<svg width="44" height="44" viewBox="0 0 44 44" fill="none" xmlns="http://www.w3.org/2000/svg">
<path d="M40.4226 20.1264H37.8261C38.002 19.7742 38.1343 19.5102 38.2221 19.2901C39.0141 17.3536 38.4861 15.1973 37.0337 13.8328C37.4298 13.7447 37.8258 13.6126 38.134 13.3925C39.6303 12.4243 39.9385 10.3558 39.9385 10.2677C39.9385 10.1357 39.9385 10.0475 39.8504 9.95944C39.7623 9.87133 39.6745 9.78353 39.5422 9.78353C37.8258 9.56342 36.7255 10.1357 36.0655 10.8838C36.0216 10.7079 35.9774 10.5317 35.9335 10.3997C35.2735 8.7272 33.5129 7.93517 33.4248 7.93517C33.2047 7.84707 32.9407 7.93517 32.8526 8.15528C32.2803 9.38757 32.2364 10.4878 32.6767 11.5C32.8526 11.896 33.1169 12.2481 33.3809 12.5563C32.6328 12.6002 31.9286 12.8203 31.2685 13.1724C31.3566 12.2481 31.3566 11.5 31.3566 11.06C31.2685 8.94761 29.8603 7.23121 27.9677 6.61507C28.3198 6.39496 28.5839 6.08705 28.804 5.73495C29.7284 4.23868 29.1122 2.21406 29.1122 2.12596C29.0683 1.99396 28.9802 1.90585 28.8921 1.86195C28.804 1.72994 28.672 1.72994 28.5839 1.77415C26.9556 2.30218 26.2075 3.31466 25.8993 4.23864C25.8112 4.10663 25.6792 3.97462 25.5471 3.84262C24.2268 2.61033 22.2903 2.69843 22.2025 2.69843C21.9823 2.69843 21.7622 2.91855 21.7622 3.13866V3.40267C20.266 3.49078 19.3858 4.15081 18.8575 4.89894C18.8136 4.72303 18.7255 4.59072 18.6374 4.41481C17.7572 2.83045 15.9088 2.3024 15.8207 2.25824C15.6448 2.25824 15.3808 2.34604 15.3369 2.61036C14.9409 3.88649 14.9848 5.03099 15.557 5.95505C15.7771 6.35107 16.0851 6.65928 16.3933 6.92327C14.5888 7.23149 13.0925 8.55156 12.5645 10.3999C12.4764 10.6639 12.3886 11.0599 12.3444 11.5002C11.8603 11.016 11.2441 10.62 10.628 10.3999C10.9801 10.1798 11.2441 9.91578 11.5081 9.56364C12.5203 8.11131 11.9922 6.04275 11.9922 5.95465C11.9483 5.82265 11.9041 5.73454 11.7721 5.69064C11.684 5.64674 11.552 5.60253 11.42 5.64674C9.74754 6.08697 8.95552 7.05522 8.60336 7.97928C8.51525 7.84727 8.38325 7.71526 8.25124 7.58326C6.9751 6.26288 5.03858 6.26288 4.99441 6.26288C4.7743 6.26288 4.55419 6.43878 4.55419 6.7031C4.51029 8.06734 4.90631 9.12374 5.65444 9.87183C6.00656 10.18 6.35867 10.3999 6.71076 10.5761C5.08247 11.3242 3.93804 12.9967 3.93804 14.9329C3.93804 15.9011 4.20206 17.9697 4.64228 20.0821L3.54202 20.0824C3.1018 20.0824 2.75 20.4345 2.75 20.8744V41.4711C2.75 41.8675 3.05791 42.2196 3.45393 42.2196H40.4664C40.8624 42.2196 41.2146 41.8675 41.2146 41.4715V20.9187C41.2146 20.4788 40.8624 20.1267 40.4225 20.1267L40.4226 20.1264ZM37.4298 18.938C37.3416 19.1139 37.2538 19.334 37.1215 19.598L35.6256 18.8499C35.4055 18.7179 35.1415 18.806 35.0095 19.0258C34.8774 19.2459 34.9656 19.5099 35.1854 19.6419L36.1536 20.17L29.6841 20.1703H28.804C29.2 18.4539 29.596 17.0454 29.8603 16.2973L30.3883 16.5174L31.1803 16.8695C31.2242 16.9134 31.3124 16.9134 31.3563 16.9134C31.5322 16.9134 31.7084 16.8253 31.7523 16.6494C31.8404 16.4293 31.7523 16.1653 31.5322 16.0772L30.7401 15.7251L30.256 15.505C30.4761 15.1528 30.7401 14.8007 31.048 14.4928L31.0919 14.4489L31.1358 14.405C32.2361 13.4806 33.7766 13.1727 35.0966 13.6569C35.2286 13.7008 35.3167 13.745 35.3606 13.745C37.2977 14.537 38.266 16.8695 37.4298 18.938ZM26.9113 20.1264C26.9113 20.0825 26.9552 20.0825 26.9552 20.0825C26.9991 19.9944 27.0872 19.8624 27.1311 19.7742C27.175 19.7303 27.175 19.6861 27.175 19.6422C27.2189 19.5541 27.2631 19.4663 27.307 19.3782C27.307 19.3343 27.3509 19.2901 27.3509 19.2023C27.3948 19.1142 27.3948 19.0264 27.4391 18.9383C27.4391 18.8944 27.483 18.8063 27.483 18.7624C27.483 18.6743 27.5269 18.5865 27.5269 18.4984C27.5269 18.4545 27.5708 18.3664 27.5708 18.3225C27.5708 18.2344 27.6147 18.1466 27.6147 18.0585V17.8826V17.6185V17.4865V17.0905V17.0466C27.6147 16.9146 27.5708 16.7826 27.5708 16.6506C27.5708 16.6067 27.5708 16.5625 27.5269 16.5186C27.5269 16.4305 27.483 16.3427 27.483 16.2546C27.483 16.2107 27.4391 16.1665 27.4391 16.0787C27.3952 15.9906 27.3952 15.9028 27.3509 15.8147C27.3509 15.7708 27.307 15.7265 27.307 15.6826C27.5711 15.7708 27.8351 15.7708 28.0991 15.7708C28.4512 15.7708 28.8033 15.6827 29.1112 15.5948C28.7591 16.5192 28.3192 18.2356 27.9229 20.0398L26.9114 20.0383L26.9113 20.1264ZM17.9773 20.1264H15.5567C16.8328 18.2779 18.1532 16.6055 19.0333 15.6373C19.2973 15.329 19.5174 15.1092 19.6933 14.8891L20.3094 15.5934L20.6616 15.9455C20.7497 16.0336 20.8817 16.0775 20.9698 16.0775C21.0579 16.0775 21.1899 16.0336 21.278 15.9455C21.4539 15.7696 21.4539 15.5052 21.3219 15.3293L20.9698 14.9772L20.3537 14.3172C20.7058 14.0532 21.1457 13.8331 21.5859 13.7011C21.8061 13.613 22.0701 13.5691 22.2902 13.5691C23.4785 13.4371 24.6666 13.8331 25.547 14.6693C25.5909 14.7132 25.6351 14.7574 25.679 14.8013L25.7229 14.8452C25.811 14.9333 25.8988 15.0211 25.943 15.1535C25.9869 15.1973 25.9869 15.2416 26.0311 15.2416C26.075 15.3297 26.1192 15.3736 26.1631 15.4617C26.207 15.5056 26.207 15.5498 26.2512 15.5937C26.2951 15.6376 26.3393 15.7257 26.3393 15.7696C26.3832 15.8135 26.3832 15.8577 26.4275 15.9016C26.4714 15.9455 26.4713 16.0336 26.5156 16.0775C26.5156 16.1214 26.5595 16.1656 26.5595 16.2534C26.5595 16.2973 26.6034 16.3854 26.6034 16.4293C26.6034 16.4732 26.6473 16.5174 26.6473 16.6052C26.6473 16.6491 26.6912 16.7372 26.6912 16.7811C26.6912 16.825 26.6912 16.9131 26.7351 16.957C26.7351 17.0009 26.7351 17.089 26.779 17.1329V17.3088V17.4848V17.6607V17.8366V18.0125C26.779 18.0564 26.779 18.1445 26.7351 18.1884C26.7351 18.2323 26.7351 18.3204 26.6912 18.3643C26.6912 18.4082 26.6473 18.4963 26.6473 18.5402C26.6473 18.5841 26.6034 18.6283 26.6034 18.7161C26.6034 18.76 26.5595 18.8481 26.5595 18.892C26.5595 18.9359 26.5156 18.9801 26.5156 19.0679C26.4717 19.1118 26.4717 19.1999 26.4275 19.2438C26.3836 19.2877 26.3836 19.3319 26.3393 19.3758C26.2954 19.4197 26.2954 19.5078 26.2512 19.5517C26.2073 19.5956 26.2073 19.6398 26.1631 19.6837C26.1192 19.7276 26.075 19.8157 26.0311 19.8596C25.9872 19.9035 25.943 19.9478 25.943 19.9917L25.8549 20.0798L17.9771 20.0825L17.9773 20.1264ZM30.4321 13.6569L30.3882 13.7008C30.3443 13.7008 30.3443 13.7447 30.3001 13.7447C29.4639 14.669 28.1877 15.4611 26.6912 14.4489C26.8232 14.3169 26.9552 14.1407 27.0433 14.0087C27.7917 13.4368 28.9359 12.9088 30.4321 13.6569ZM26.4271 13.4368C26.2512 13.5688 26.1189 13.7008 26.0311 13.8328C25.679 13.3926 25.1949 12.5566 25.2391 11.6323C25.283 10.9723 25.5912 10.3561 26.1635 9.78386C26.6473 10.4442 27.3954 11.9844 26.4271 13.4368ZM39.058 10.5763C38.8821 11.1485 38.53 12.1168 37.7377 12.6447C37.2535 12.953 36.6813 13.0408 36.0652 12.953C36.1091 12.7771 36.1972 12.5569 36.1972 12.3807C36.5493 11.5445 37.3417 10.5321 39.058 10.5763ZM33.5568 8.9038C34.0409 9.21202 34.8329 9.78393 35.1851 10.7083C35.361 11.1485 35.4052 11.6327 35.3171 12.1606C35.229 12.3365 35.1851 12.5127 35.1412 12.6887C34.6571 12.4246 33.9089 11.9405 33.5129 11.1043C33.2486 10.4443 33.2486 9.69614 33.5568 8.9038ZM30.52 11.0162C30.52 11.3683 30.52 11.9844 30.4761 12.7326C29.3759 12.2924 28.4515 12.3805 27.7034 12.6887C28.0116 11.1043 27.1754 9.56383 26.5592 8.8599C26.3833 8.684 26.119 8.684 25.9431 8.816C24.9749 9.65227 24.4468 10.5763 24.3587 11.5887C24.3148 12.1167 24.4026 12.5569 24.5788 12.9972C24.5349 12.9972 24.4907 12.9533 24.4907 12.9533C24.4026 12.9094 24.3148 12.9094 24.2267 12.8652C24.1386 12.8213 24.0947 12.8213 24.0066 12.8213C23.9185 12.7774 23.8307 12.7774 23.7426 12.7774C23.6545 12.7774 23.6106 12.7335 23.5225 12.7335C23.4344 12.7335 23.3466 12.6896 23.2143 12.6896H22.9941H22.7301H22.6862C22.6423 12.3814 22.5981 12.1174 22.5981 11.8533L24.0066 11.7652C24.2706 11.7652 24.4468 11.5451 24.4468 11.325C24.4468 11.061 24.2267 10.8848 24.0066 10.8848L22.5981 10.9729C22.7301 9.0806 24.1825 7.45199 26.119 7.23186H26.4272C28.5396 7.09924 30.4319 8.81559 30.52 11.0161L30.52 11.0162ZM28.4076 2.78632C28.4957 3.35854 28.5835 4.41461 28.0994 5.20695C27.7912 5.69108 27.3512 5.99898 26.6909 6.21911C26.647 5.99899 26.6028 5.82309 26.5589 5.64688C26.5589 4.72283 26.8233 3.49048 28.4076 2.78632ZM24.9306 4.50271C25.2828 4.85483 25.5468 5.25085 25.6788 5.735C25.6788 5.95511 25.7227 6.13102 25.7227 6.26302C25.1947 6.26302 24.2703 6.13102 23.6103 5.55879C23.0822 5.11856 22.774 4.45854 22.6859 3.57841C23.2581 3.66652 24.2264 3.84273 24.9306 4.50278L24.9306 4.50271ZM23.0384 6.26296C23.3905 6.57118 23.7426 6.74709 24.1386 6.92299C22.9944 7.53911 22.1582 8.59545 21.8061 9.87166C21.718 9.69576 21.6302 9.51954 21.5421 9.34364C21.19 8.72751 20.7058 8.19945 20.1778 7.80313C20.5739 7.67112 20.926 7.49491 21.2342 7.2309C21.8064 6.74677 22.1585 6.08672 22.3783 5.47065C22.5543 5.73497 22.7741 5.99896 23.0384 6.26296ZM21.718 4.32675C21.6299 4.89898 21.3659 5.91112 20.6617 6.52726C20.2214 6.87938 19.6934 7.05528 19.0334 7.01138C19.0773 6.79127 19.0773 6.61536 19.1215 6.39526C19.3413 5.55899 20.0455 4.50263 21.718 4.32675ZM16.0405 3.31428C16.5686 3.5344 17.4048 4.01852 17.889 4.89865C18.1091 5.33887 18.2411 5.82302 18.1972 6.35098C18.1533 6.52689 18.1091 6.7031 18.0652 6.87901C17.5371 6.7031 16.7448 6.30678 16.2607 5.51477C15.9528 4.89865 15.8646 4.15055 16.0405 3.31428ZM18.241 7.80339C18.2849 7.80339 18.3291 7.84729 18.373 7.84729C19.3852 8.15551 20.2653 8.81551 20.7937 9.73957C21.3217 10.6639 21.4537 11.7642 21.1458 12.8202C21.1458 12.8641 21.1458 12.9083 21.1019 12.9083C20.4858 13.1284 19.9135 13.4363 19.4294 13.8765C19.1654 14.0966 18.8133 14.4927 18.3731 14.9768C17.4049 16.077 15.9086 17.9693 14.5001 20.0378H13.0917C13.1356 19.8177 13.1798 19.5976 13.2237 19.3778L13.8398 19.5537H13.9718C14.1477 19.5537 14.3239 19.4217 14.412 19.2454C14.4559 19.0253 14.3239 18.7613 14.1038 18.7174L13.3996 18.5415C13.3996 18.4534 13.4435 18.3214 13.4435 18.2333L13.4874 18.0574C13.7075 16.6932 13.8395 15.5487 13.8395 14.8887C13.8395 14.0085 13.5755 13.1284 13.1353 12.3361C13.2234 11.808 13.3112 11.3239 13.3554 10.9718L14.7196 11.3679H14.8516C15.0275 11.3679 15.2037 11.2359 15.2918 11.0596C15.3357 10.8395 15.2037 10.5755 14.9836 10.5316L13.6194 10.1356C14.2803 8.37558 16.2607 7.31926 18.2412 7.80337L18.241 7.80339ZM11.1554 6.61504C11.2435 7.18727 11.2435 8.24334 10.7152 9.03568C10.407 9.4759 9.92315 9.78381 9.26284 9.96004C9.26284 9.73993 9.21894 9.56403 9.17474 9.34392C9.21925 8.46348 9.57104 7.23118 11.1554 6.61504ZM5.39016 7.18727C5.96238 7.27537 6.93067 7.49549 7.59066 8.19942C7.94278 8.55154 8.16289 8.99145 8.2949 9.47556C8.2949 9.69567 8.2949 9.87158 8.3388 10.0036C7.81077 9.95968 6.88646 9.78347 6.22639 9.16731C5.74226 8.7277 5.4783 8.06739 5.39016 7.18727ZM4.81824 15.3731H6.22672C6.49073 15.3731 6.66695 15.1972 6.66695 14.9329C6.66695 14.6689 6.49104 14.4927 6.22672 14.4927H4.81824C5.03835 12.5562 6.62273 11.0161 8.60311 10.928H8.82322C10.1875 10.928 11.464 11.6322 12.1679 12.7324C12.6081 13.3925 12.8279 14.1409 12.8279 14.933C12.8279 15.461 12.7398 16.4292 12.5639 17.5737H10.8037C10.5397 17.5737 10.3635 17.7496 10.3635 18.0139C10.3635 18.278 10.5394 18.4542 10.8037 18.4542H12.432C12.432 18.5862 12.3881 18.6743 12.3881 18.8063C12.3442 19.2023 12.2561 19.5983 12.168 20.0824H5.52228C5.12626 18.1017 4.90615 16.3853 4.81835 15.3732L4.81824 15.3731ZM40.3344 41.3391H3.62997V35.1339H40.3784L40.3781 41.3391H40.3344ZM40.3344 34.2535H3.62997V28.0483H40.3784L40.3781 34.2535H40.3344ZM3.62997 27.1679V21.0066H40.2912V27.2121H3.62997V27.1679Z" fill="#588157" stroke="#588157" stroke-width="0.4"/>
<path d="M5.21451 21.7107C4.77428 21.7107 4.42249 22.0628 4.42249 22.5027C4.42249 22.9429 4.77461 23.2947 5.21451 23.2947C5.65474 23.2947 6.00654 22.9426 6.00654 22.5027C6.00654 22.0628 5.61051 21.7107 5.21451 21.7107Z" fill="#588157" stroke="#588157" stroke-width="0.4"/>
<path d="M5.21451 24.9236C4.77428 24.9236 4.42249 25.2757 4.42249 25.7156C4.42249 26.1558 4.77461 26.5076 5.21451 26.5076C5.65474 26.5076 6.00654 26.1555 6.00654 25.7156C6.00654 25.2757 5.61051 24.9236 5.21451 24.9236Z" fill="#588157" stroke="#588157" stroke-width="0.4"/>
<path d="M38.7502 21.7107C38.31 21.7107 37.9582 22.0628 37.9582 22.5027C37.9582 22.9429 38.3103 23.2947 38.7502 23.2947C39.1904 23.2947 39.5422 22.9426 39.5422 22.5027C39.5425 22.0628 39.1904 21.7107 38.7502 21.7107Z" fill="#588157" stroke="#588157" stroke-width="0.4"/>
<path d="M38.7502 24.9236C38.31 24.9236 37.9582 25.2757 37.9582 25.7156C37.9582 26.1558 38.3103 26.5076 38.7502 26.5076C39.1904 26.5076 39.5422 26.1555 39.5422 25.7156C39.5425 25.2757 39.1904 24.9236 38.7502 24.9236Z" fill="#588157" stroke="#588157" stroke-width="0.4"/>
<path d="M5.21451 30.3367C5.65474 30.3367 6.00654 29.9846 6.00654 29.5447C6.00654 29.1045 5.65442 28.7527 5.21451 28.7527C4.77428 28.7527 4.42249 29.1048 4.42249 29.5447C4.42218 29.9849 4.7743 30.3367 5.21451 30.3367Z" fill="#588157" stroke="#588157" stroke-width="0.4"/>
<path d="M5.21451 33.5494C5.65474 33.5494 6.00654 33.1973 6.00654 32.7574C6.00654 32.3171 5.65442 31.9653 5.21451 31.9653C4.77428 31.9653 4.42249 32.3175 4.42249 32.7574C4.42218 33.1973 4.7743 33.5494 5.21451 33.5494Z" fill="#588157" stroke="#588157" stroke-width="0.4"/>
<path d="M38.7502 30.3367C39.1904 30.3367 39.5422 29.9846 39.5422 29.5447C39.5422 29.1045 39.1901 28.7527 38.7502 28.7527C38.31 28.7527 37.9582 29.1048 37.9582 29.5447C37.9582 29.9849 38.3542 30.3367 38.7502 30.3367Z" fill="#588157" stroke="#588157" stroke-width="0.4"/>
<path d="M38.7502 33.5494C39.1904 33.5494 39.5422 33.1973 39.5422 32.7574C39.5422 32.3171 39.1901 31.9653 38.7502 31.9653C38.31 31.9653 37.9582 32.3175 37.9582 32.7574C37.9582 33.1973 38.3542 33.5494 38.7502 33.5494Z" fill="#588157" stroke="#588157" stroke-width="0.4"/>
<path d="M5.21451 37.3782C5.65474 37.3782 6.00654 37.0261 6.00654 36.5862C6.00654 36.146 5.65442 35.7942 5.21451 35.7942C4.77428 35.7942 4.42249 36.1463 4.42249 36.5862C4.42218 37.0261 4.7743 37.3782 5.21451 37.3782Z" fill="#588157" stroke="#588157" stroke-width="0.4"/>
<path d="M5.21451 40.5911C5.65474 40.5911 6.00654 40.239 6.00654 39.7991C6.00654 39.3589 5.65442 39.0071 5.21451 39.0071C4.77428 39.0071 4.42249 39.3592 4.42249 39.7991C4.42218 40.239 4.7743 40.5911 5.21451 40.5911Z" fill="#588157" stroke="#588157" stroke-width="0.4"/>
<path d="M38.7502 37.3782C39.1904 37.3782 39.5422 37.0261 39.5422 36.5862C39.5422 36.146 39.1901 35.7942 38.7502 35.7942C38.31 35.7942 37.9582 36.1463 37.9582 36.5862C37.9582 37.0261 38.3542 37.3782 38.7502 37.3782Z" fill="#588157" stroke="#588157" stroke-width="0.4"/>
<path d="M38.7502 40.5911C39.1904 40.5911 39.5422 40.239 39.5422 39.7991C39.5422 39.3589 39.1901 39.0071 38.7502 39.0071C38.31 39.0071 37.9582 39.3592 37.9582 39.7991C37.9582 40.239 38.3542 40.5911 38.7502 40.5911Z" fill="#588157" stroke="#588157" stroke-width="0.4"/>
</svg>
