<svg width="44" height="44" viewBox="0 0 44 44" fill="none" xmlns="http://www.w3.org/2000/svg">
<path d="M2.75 40.3334H4.58333V41.25H2.75V40.3334Z" fill="#588157"/>
<path d="M39.4166 40.3334H41.25V41.25H39.4166V40.3334Z" fill="#588157"/>
<path d="M36.0556 36.8279C35.5337 35.786 34.4874 35.1389 33.3227 35.1389H29.3333V31.4722H31.7778C33.7999 31.4722 35.4445 29.8277 35.4445 27.8056V26.5834H31.7778C30.2048 26.5834 28.8641 27.5808 28.3447 28.9751C27.6749 28.2579 26.7233 27.8056 25.6667 27.8056H22V29.0278C22 31.0499 23.6446 32.6945 25.6667 32.6945H28.1111V35.1389H24.4445C23.4887 35.1389 22.5738 35.5953 22 36.3611L21.4012 37.1599L20.7753 36.3404C20.2016 35.5875 19.2928 35.139 18.3462 35.139H14.6667V31.4723H17.1111C19.1332 31.4723 20.7778 29.8278 20.7778 27.8057V26.5834H17.1111C15.5381 26.5834 14.1974 27.5808 13.678 28.9752C13.0082 28.258 12.0566 27.8057 11 27.8057H7.33333V29.0279C7.33333 31.05 8.97789 32.6945 11 32.6945H13.4444V35.139H10.6773C9.51259 35.139 8.46637 35.7861 7.94444 36.828L6.34466 40.0278H5.5V41.25H38.5V40.0278H37.6553L36.0556 36.8279ZM31.7778 27.8059H34.2222C34.2222 29.1539 33.1258 30.2503 31.7778 30.2503H29.3333C29.3333 28.9023 30.4298 27.8059 31.7778 27.8059ZM25.6667 31.4725C24.3187 31.4725 23.2222 30.3761 23.2222 29.0281H25.6667C27.0147 29.0281 28.1111 30.1245 28.1111 31.4725H25.6667ZM17.1111 27.8059H19.5556C19.5556 29.1539 18.4591 30.2503 17.1111 30.2503H14.6667C14.6667 28.9023 15.7631 27.8059 17.1111 27.8059ZM11 31.4725C9.652 31.4725 8.55556 30.3761 8.55556 29.0281H11C12.348 29.0281 13.4445 30.1245 13.4445 31.4725H11ZM22.9778 37.0947C23.3224 36.6353 23.8707 36.3614 24.4445 36.3614H33.3227C34.0211 36.3614 34.6494 36.7501 34.9623 37.3746L36.289 40.028H20.778L22.9778 37.0947ZM9.03747 37.3746C9.35039 36.7501 9.97872 36.3614 10.6771 36.3614H18.3464C18.9147 36.3614 19.4593 36.6304 19.8038 37.0818L20.6392 38.1764L19.2497 40.028H7.71048L9.03747 37.3746Z" fill="#588157"/>
<path d="M24.75 37.5834H25.6667V38.5H24.75V37.5834Z" fill="#588157"/>
<path d="M31.1667 37.5834H32.0834V38.5H31.1667V37.5834Z" fill="#588157"/>
<path d="M10.0833 37.5834H11.9166V38.5H10.0833V37.5834Z" fill="#588157"/>
<path d="M15.5833 37.5834H17.4166V38.5H15.5833V37.5834Z" fill="#588157"/>
<path d="M41.25 21.9515C41.25 20.8905 40.808 19.9025 40.0275 19.1957V5.22761C40.0275 3.86131 38.9309 2.75 37.5826 2.75C36.2343 2.75 35.1376 3.86131 35.1376 5.22761V19.1964C34.1866 20.0611 33.7446 21.3524 33.9781 22.6421C34.2428 24.1032 35.378 25.287 36.804 25.5862C37.0619 25.6401 37.3211 25.6667 37.5779 25.6667C38.4208 25.6667 39.2375 25.3785 39.897 24.8349C40.7561 24.1256 41.25 23.0746 41.25 21.9517L41.25 21.9515ZM39.124 23.8741C38.5428 24.3536 37.8069 24.5319 37.0512 24.3727C36.1068 24.175 35.3551 23.3891 35.1796 22.4185C35.009 21.4739 35.3594 20.5628 36.1172 19.9818L36.3601 19.796V5.22768C36.3601 4.54441 36.9083 3.98888 37.5825 3.98888C38.2568 3.98888 38.805 4.54441 38.805 5.22768V6.46649H37.5825V7.70529H38.805V8.9441H37.5825V10.1829H38.805V11.4217H37.5825V12.6605H38.805V13.8993H37.5825V15.1381H38.805V16.3769H37.5825V17.6157H38.805V19.7967L39.0476 19.9825C39.6706 20.4589 40.0275 21.1768 40.0275 21.9515C40.0275 22.7004 39.6987 23.4011 39.124 23.8742L39.124 23.8741Z" fill="#588157"/>
<path d="M22 20.1667C25.538 20.1667 28.4166 17.2881 28.4166 13.75C28.4166 10.212 25.538 7.33337 22 7.33337C18.4619 7.33337 15.5833 10.212 15.5833 13.75C15.5833 17.2881 18.4619 20.1667 22 20.1667ZM22 8.61671C24.8305 8.61671 27.1333 10.9195 27.1333 13.75C27.1333 16.5806 24.8305 18.8834 22 18.8834C19.1695 18.8834 16.8666 16.5806 16.8666 13.75C16.8666 10.9195 19.1695 8.61671 22 8.61671Z" fill="#588157"/>
<path d="M13.7344 17.174C14.217 18.3377 14.4103 19.582 14.2952 20.7713L14.222 21.528L14.9787 21.4548C16.1705 21.3397 17.4129 21.5336 18.576 22.0156C19.7396 22.4977 20.7562 23.2398 21.516 24.1632L22 24.75L22.4832 24.1629C23.243 23.2396 24.2596 22.4971 25.4232 22.0153C26.5862 21.5327 27.8275 21.3394 29.0204 21.4545L29.7772 21.5277L29.7039 20.771C29.5888 19.5817 29.7828 18.3373 30.2648 17.1737C30.7468 16.0102 31.489 14.9935 32.4123 14.2337L33 13.75L32.4129 13.2668C31.4896 12.507 30.7472 11.4904 30.2653 10.3268C29.7828 9.16318 29.5894 7.91886 29.7045 6.72956L29.7777 5.97284L29.021 6.04605C27.828 6.16006 26.5868 5.96669 25.4237 5.48521C24.2601 5.00317 23.2435 4.26099 22.4837 3.33766L22 2.75L21.5168 3.33711C20.757 4.26037 19.7404 5.00285 18.5768 5.48465C17.4138 5.96669 16.1714 6.15951 14.9796 6.04549L14.2228 5.97228L14.296 6.729C14.4112 7.91831 14.2172 9.1627 13.7352 10.3262C13.2532 11.4898 12.511 12.5065 11.5877 13.2663L11 13.75L11.5871 14.2332C12.5098 14.9932 13.2523 16.0096 13.7344 17.174ZM14.891 10.8056C15.3554 9.68501 15.5896 8.49706 15.5795 7.329C16.7395 7.32789 17.935 7.10545 19.0561 6.64046C20.1767 6.17658 21.1818 5.50173 22.0006 4.66925C22.8193 5.50173 23.8245 6.17654 24.945 6.64046C26.0656 7.10489 27.2499 7.32453 28.4216 7.329C28.411 8.49649 28.6452 9.68501 29.1102 10.8056C29.574 11.9261 30.2489 12.9319 31.0814 13.75C30.2489 14.5688 29.5741 15.574 29.1102 16.6945C28.6457 17.8151 28.4116 19.003 28.4216 20.1711C27.253 20.163 26.0656 20.3946 24.945 20.8596C23.8245 21.3235 22.8193 21.9984 22.0006 22.8308C21.1818 21.9984 20.1767 21.3235 19.0561 20.8596C17.9587 20.4047 16.7965 20.1705 15.6522 20.1705C15.6279 20.1705 15.6042 20.1711 15.5796 20.1711C15.5902 19.0044 15.356 17.8151 14.891 16.6945C14.4271 15.574 13.7523 14.5688 12.9198 13.75C13.752 12.9313 14.4265 11.9261 14.891 10.8056Z" fill="#588157"/>
<path d="M11.9167 21.0834H12.8334V22H11.9167V21.0834Z" fill="#588157"/>
<path d="M10.0833 23.8334H11.9166V24.75H10.0833V23.8334Z" fill="#588157"/>
<path d="M15.5833 22H17.4166V23.8333H15.5833V22Z" fill="#588157"/>
<path d="M29.3333 22.9166H30.25V23.8333H29.3333V22.9166Z" fill="#588157"/>
<path d="M26.5833 23.8334H28.4166V25.6667H26.5833V23.8334Z" fill="#588157"/>
</svg>
