<svg width="42" height="42" viewBox="0 0 42 42" fill="none" xmlns="http://www.w3.org/2000/svg">
<path d="M29.4836 37.2196C29.2849 35.9768 29.3297 34.653 29.6312 33.2546L30.6365 33.0381L31.5863 33.3997C32.4317 33.7891 33.2553 33.9844 34.05 33.9844C34.6336 33.9844 35.1999 33.879 35.7483 33.669C38.0956 32.7688 39.2443 30.2322 39.3534 29.9777L39.9078 28.9047C39.9078 28.9047 38.2243 30.0095 35.9935 29.3856C32.7863 28.4886 30.9409 30.472 30.2842 31.8426L29.9997 31.9041C30.1561 31.4132 30.3318 30.917 30.5455 30.4104C31.1311 29.0217 31.2997 27.9328 31.0951 27.0678L31.135 26.1076C31.1665 24.7466 30.8207 23.5735 29.9475 22.791C27.9863 21.0344 24.4693 21.3051 24.4693 21.3051C24.4693 21.3051 26.5377 22.5175 26.5655 23.9568C26.6168 26.5931 28.6693 27.5137 29.9374 27.6316C29.9787 28.2044 29.8059 28.9679 29.4006 29.9278C29.1514 30.5179 28.9479 31.0975 28.7711 31.6708L28.4653 31.4067L28.4432 30.4297C28.3958 29.1209 27.9228 28.0779 27.0167 27.3557C24.3761 25.2516 19.874 26.7263 19.874 26.7263L21.0017 27.5244C21.4631 27.8205 22.1541 28.3384 22.5333 29.2785V29.2773C23.523 31.7326 25.4168 32.385 26.8506 32.385C27.1298 32.385 27.3815 32.355 27.6162 32.3139L28.4157 33.0046C28.0997 34.477 28.0382 35.885 28.225 37.2194H11.5495C11.3976 36.0545 11.4466 34.8234 11.7264 33.5247L12.7316 33.3081L13.6814 33.6701C14.5268 34.0595 15.3505 34.2548 16.1452 34.2548C16.7287 34.2548 17.295 34.1491 17.8434 33.9393C20.1907 33.0392 21.3394 30.5029 21.4485 30.2481L22.0026 29.175C22.0026 29.175 20.3191 30.2798 18.0883 29.656C14.8811 28.759 13.0358 30.7424 12.3791 32.1129L12.0945 32.1744C12.2507 31.6836 12.4267 31.1873 12.6404 30.6808C13.2259 29.2923 13.3946 28.2034 13.1902 27.3382L13.2302 26.378C13.2616 25.0167 12.9161 23.8436 12.0426 23.0614C10.0814 21.3047 6.5644 21.5754 6.5644 21.5754C6.5644 21.5754 8.63282 22.7876 8.66061 24.2271C8.7119 26.8635 10.7644 27.7843 12.0322 27.9019C12.0736 28.4747 11.9007 29.2386 11.4954 30.1982C11.2463 30.7883 11.0428 31.3678 10.8659 31.9412L10.5601 31.677L10.538 30.7001C10.4907 29.3912 10.0176 28.3482 9.11156 27.6261C6.47089 25.522 1.96881 26.9966 1.96881 26.9966L3.09654 27.7947C3.55796 28.0909 4.24895 28.6087 4.62783 29.5488V29.5477C5.61786 32.003 7.51134 32.6557 8.94519 32.6557C9.22436 32.6557 9.47604 32.6257 9.71073 32.5846L10.5103 33.2753C10.2153 34.6493 10.1512 35.9649 10.2946 37.219H2.20319V38.4613H40.0642V37.219H29.4841L29.4836 37.2196ZM35.6902 30.589C36.1692 30.7103 36.783 30.8253 37.4454 30.7698C36.9576 31.4236 36.2432 32.1492 35.3044 32.5095C34.3326 32.8807 33.2567 32.8019 32.0678 32.2561L31.5778 32.0693C32.0667 31.278 33.2653 29.9799 35.6902 30.589ZM29.8807 26.3782C29.1577 26.2654 27.9664 25.7887 27.6584 23.9V23.8989C27.6014 23.5471 27.5079 23.12 27.3151 22.6932C27.9035 22.8581 28.5608 23.1492 29.0581 23.6588C29.6355 24.2509 29.9158 25.0649 29.8925 26.0679L29.8807 26.3782ZM23.6856 28.8142V28.8131C23.517 28.3959 23.277 27.8874 22.8983 27.4254H22.9178C23.9781 27.4254 25.3391 27.5929 26.2333 28.3193C26.8506 28.8215 27.1674 29.5264 27.2012 30.4665L27.2159 31.1204C26.3821 31.2125 24.6073 31.0983 23.6856 28.8142ZM17.7854 30.8596C18.2647 30.9809 18.8783 31.0963 19.5406 31.0404C19.0531 31.6943 18.3387 32.4196 17.3996 32.7801C16.428 33.1514 15.3519 33.0723 14.1633 32.5264L13.6733 32.3397C14.1619 31.5487 15.3605 30.2505 17.7854 30.8596ZM11.9759 26.6488C11.2529 26.536 10.0616 26.0593 9.75356 24.1706V24.1695C9.6966 23.8178 9.60307 23.3907 9.41034 22.9635C9.99872 23.1285 10.6563 23.4196 11.1533 23.9292C11.7307 24.5212 12.011 25.3352 11.988 26.3382L11.9759 26.6488ZM5.78085 29.0848V29.0837C5.61221 28.6665 5.37187 28.158 4.99347 27.6961H5.01275C6.073 27.6961 7.434 27.8636 8.32818 28.5899C8.94575 29.0922 9.26234 29.7971 9.29636 30.7372L9.31082 31.391C8.4773 31.4831 6.70252 31.3689 5.78085 29.0848Z" fill="#588157"/>
<path d="M13.9523 7.42512H15.1328V9.87838H20.3253V7.42512H39.8529V3.5H13.9527C12.8706 3.5 11.99 4.38003 11.99 5.46212C11.99 6.54451 12.8706 7.42512 13.9527 7.42512H13.9523ZM19.0828 8.63615H16.3747V7.42512H19.0828V8.63615ZM13.9523 4.74223H38.6103V6.18282H13.9523C13.5549 6.18282 13.2318 5.85972 13.2318 5.46236C13.2315 5.06472 13.5549 4.74223 13.9523 4.74223Z" fill="#588157"/>
<path d="M17.1077 11.4927H18.35V12.909H17.1077V11.4927Z" fill="#588157"/>
<path d="M17.1077 14.4749H18.35V15.8906H17.1077V14.4749Z" fill="#588157"/>
<path d="M17.1077 17.4563H18.35V18.8726H17.1077V17.4563Z" fill="#588157"/>
<path d="M17.1077 20.4368H18.35V21.8531H17.1077V20.4368Z" fill="#588157"/>
<path d="M18.7141 11.73L19.8619 11.2561L20.4024 12.5649L19.2546 13.0388L18.7141 11.73Z" fill="#588157"/>
<path d="M19.8533 14.4856L21.0008 14.0111L21.5418 15.3202L20.3943 15.7947L19.8533 14.4856Z" fill="#588157"/>
<path d="M20.9916 17.2428L22.1392 16.7683L22.6802 18.0774L21.5327 18.5519L20.9916 17.2428Z" fill="#588157"/>
<path d="M22.1315 19.9963L23.279 19.5229L23.819 20.8318L22.6714 21.3051L22.1315 19.9963Z" fill="#588157"/>
<path d="M15.0558 12.565L15.5969 11.2559L16.7444 11.7303L16.2034 13.0394L15.0558 12.565Z" fill="#588157"/>
<path d="M13.9175 15.3199L14.4585 14.0111L15.6061 14.4856L15.065 15.7944L13.9175 15.3199Z" fill="#588157"/>
<path d="M12.7791 18.0758L13.3201 16.767L14.4676 17.2414L13.9266 18.5502L12.7791 18.0758Z" fill="#588157"/>
<path d="M11.6414 20.8315L12.1824 19.5227L13.33 19.9972L12.7889 21.306L11.6414 20.8315Z" fill="#588157"/>
</svg>
