<svg width="44" height="44" viewBox="0 0 44 44" fill="none" xmlns="http://www.w3.org/2000/svg">
<path d="M38.7065 22.6483C38.3467 21.7784 37.5382 21.2387 36.5973 21.2387H26.5025C26.1803 19.3303 24.6733 17.8239 22.7651 17.5014V12.1044H25.0487C27.9862 12.1044 30.3771 9.71402 30.3771 6.77596V3.73117C30.3771 3.31115 30.037 2.96997 29.6159 2.96997H26.5711C24.6314 2.96997 22.9364 4.01529 22.0039 5.56788C21.0714 4.01521 19.3765 2.96997 17.4367 2.96997H14.3919C13.9709 2.96997 13.6308 3.31115 13.6308 3.73117V6.77596C13.6308 9.71402 16.0217 12.1044 18.9591 12.1044H21.2427V17.5014C19.3343 17.8235 17.8279 19.3306 17.5054 21.2387H7.41058C6.46965 21.2387 5.66122 21.7784 5.30132 22.6483C4.94112 23.5176 5.13074 24.4714 5.7961 25.1368L20.3894 39.73C20.8345 40.1745 21.4194 40.3968 22.0039 40.3968C22.5884 40.3968 23.1732 40.1745 23.6184 39.7294L38.2117 25.1361C38.877 24.4714 39.0667 23.5178 38.7065 22.6482L38.7065 22.6483ZM26.5709 4.49263H28.8545V6.77622C28.8545 8.87496 27.1472 10.5822 25.0485 10.5822H23.8411L26.3476 8.07574C26.6452 7.77806 26.6452 7.29688 26.3476 6.99954C26.0499 6.70185 25.5687 6.70185 25.2713 6.99954L22.7649 9.50601V8.29862C22.7649 6.19989 24.4721 4.49263 26.5709 4.49263ZM15.1529 6.77622V4.49263H17.4365C19.5352 4.49263 21.2425 6.19989 21.2425 8.29862V9.50601L18.736 6.99954C18.4383 6.70185 17.9571 6.70185 17.6598 6.99954C17.3621 7.29722 17.3621 7.77841 17.6598 8.07574L20.1663 10.5822H18.9589C16.8601 10.5822 15.1529 8.87496 15.1529 6.77622ZM22.0037 18.9554C23.4187 18.9554 24.6003 19.9297 24.9404 21.239H19.0669C19.4071 19.9297 20.5886 18.9554 22.0037 18.9554ZM37.1354 24.0609L22.5422 38.6542C22.2445 38.9519 21.7633 38.9512 21.466 38.6542L6.87183 24.0609C6.53847 23.7276 6.66182 23.3415 6.70668 23.2311C6.75323 23.1216 6.9381 22.7614 7.41011 22.7614H36.5975C37.0695 22.7614 37.2544 23.1216 37.3009 23.2311C37.3454 23.3415 37.4688 23.7275 37.1354 24.0609Z" fill="#588157"/>
<path d="M16.4883 26.2577C16.5416 26.2502 16.5871 26.2349 16.633 26.2122C16.6786 26.1969 16.7244 26.1741 16.77 26.1435C16.808 26.113 16.8468 26.0827 16.8842 26.0521C16.9147 26.0141 16.945 25.976 16.9756 25.9379C17.0062 25.8924 17.0282 25.8465 17.0442 25.801C17.067 25.7555 17.0823 25.7096 17.0897 25.6641C17.0982 25.6107 17.1057 25.5652 17.1057 25.5118C17.1057 25.4129 17.083 25.314 17.0449 25.2226C17.0068 25.1312 16.9535 25.0476 16.8852 24.9715C16.8471 24.9409 16.8084 24.9107 16.771 24.8801C16.7255 24.8495 16.6796 24.8267 16.6341 24.8114C16.5875 24.7887 16.5426 24.7734 16.4893 24.7659C16.2463 24.7126 15.9792 24.7965 15.8049 24.9715C15.7362 25.0476 15.6832 25.1312 15.6452 25.2226C15.6061 25.314 15.5833 25.4129 15.5833 25.5118C15.5833 25.7174 15.6662 25.9077 15.8042 26.0521C15.948 26.1894 16.1468 26.273 16.3445 26.273C16.3901 26.273 16.4434 26.2655 16.4883 26.2577Z" fill="#588157"/>
<path d="M11.286 23.995C11.27 23.9494 11.2479 23.9036 11.2174 23.8655C11.1868 23.82 11.1565 23.7819 11.1259 23.7438C10.9509 23.5688 10.6845 23.4849 10.4409 23.5382C10.3882 23.5457 10.342 23.561 10.2971 23.5838C10.2506 23.5991 10.2057 23.6218 10.1595 23.6524C10.1214 23.683 10.0834 23.7133 10.046 23.7438C9.90735 23.8883 9.82443 24.0864 9.82443 24.2842C9.82443 24.4897 9.90735 24.68 10.0453 24.8245C10.0834 24.855 10.1214 24.8853 10.1588 24.9159C10.2054 24.9465 10.2502 24.9692 10.2964 24.9845C10.342 25.0073 10.3879 25.0226 10.4402 25.0301C10.4867 25.0379 10.5391 25.0453 10.5856 25.0453C10.7834 25.0453 10.9815 24.9618 11.1259 24.8245C11.2632 24.68 11.3468 24.4819 11.3468 24.2841C11.3468 24.2308 11.3394 24.1853 11.3309 24.1319C11.3241 24.0864 11.3088 24.0405 11.286 23.995Z" fill="#588157"/>
<path d="M14.818 28.2194C14.7724 28.1889 14.7266 28.1661 14.681 28.1508C14.6345 28.128 14.5896 28.1127 14.5363 28.1053C14.2933 28.0519 14.0262 28.1358 13.8519 28.3109C13.7136 28.4553 13.6306 28.6534 13.6306 28.8512C13.6306 29.0489 13.7135 29.2471 13.8515 29.3915C13.8896 29.4221 13.9276 29.4523 13.965 29.4829C14.0116 29.5135 14.0564 29.5362 14.1026 29.5515C14.1482 29.5743 14.1941 29.5896 14.2396 29.5971C14.2929 29.6049 14.3453 29.6124 14.3918 29.6124C14.4374 29.6124 14.4907 29.6049 14.5356 29.5971C14.5889 29.5896 14.6345 29.5743 14.6803 29.5515C14.7259 29.5362 14.7717 29.5135 14.8173 29.4829C14.8553 29.4523 14.8941 29.4221 14.9315 29.3915C15.0694 29.2471 15.153 29.0489 15.153 28.8512C15.153 28.6534 15.0694 28.4553 14.9321 28.3109C14.8941 28.2803 14.8554 28.2422 14.818 28.2194Z" fill="#588157"/>
<path d="M25.1348 29.7187C25.1654 29.6807 25.1957 29.6426 25.2262 29.6046C25.2568 29.559 25.2789 29.5132 25.2949 29.4676C25.3177 29.4221 25.3329 29.3762 25.3404 29.3307C25.3482 29.2773 25.3557 29.2318 25.3557 29.1784C25.3557 29.0796 25.3329 28.9807 25.2949 28.8893C25.2568 28.7978 25.2035 28.7142 25.1352 28.6381C24.9523 28.4631 24.6937 28.3792 24.4501 28.4325C24.3974 28.44 24.3512 28.4553 24.3064 28.4781C24.2598 28.4934 24.2149 28.5161 24.1687 28.5467C24.1307 28.5773 24.0926 28.6075 24.0552 28.6381C23.9866 28.7142 23.9336 28.7904 23.8955 28.8893C23.8561 28.9807 23.8333 29.0796 23.8333 29.1784C23.8333 29.384 23.9162 29.5743 24.0542 29.7187C24.198 29.856 24.3883 29.9396 24.5945 29.9396C24.7923 29.9396 24.9904 29.856 25.1348 29.7187Z" fill="#588157"/>
<path d="M23.8942 24.874C23.9095 24.9196 23.9322 24.9654 23.9628 25.011C23.9856 25.049 24.0236 25.0871 24.0542 25.1252C24.198 25.2624 24.3968 25.346 24.5945 25.346C24.7923 25.346 24.9904 25.2624 25.1349 25.1252C25.1654 25.0871 25.1957 25.049 25.2263 25.011C25.2568 24.9654 25.2789 24.9196 25.2949 24.874C25.3177 24.8285 25.333 24.7826 25.3404 24.7371C25.3483 24.6837 25.3557 24.6382 25.3557 24.5848C25.3557 24.486 25.333 24.3871 25.2949 24.2957C25.2568 24.2042 25.2035 24.1207 25.1352 24.0445C24.846 23.7628 24.3434 23.7628 24.0542 24.0445C23.9856 24.1207 23.9326 24.2042 23.8945 24.2957C23.8486 24.3871 23.8333 24.486 23.8333 24.5848C23.8333 24.6382 23.8408 24.6837 23.8486 24.7371C23.8561 24.7826 23.8714 24.8285 23.8942 24.874Z" fill="#588157"/>
<path d="M19.6349 31.5419C19.6654 31.5038 19.6957 31.4658 19.7263 31.4277C19.7569 31.3822 19.7789 31.3363 19.7949 31.2908C19.8177 31.2452 19.833 31.1994 19.8405 31.1538C19.8483 31.1005 19.8557 31.0471 19.8557 31.0016C19.8557 30.9561 19.8483 30.9027 19.8398 30.8494C19.8323 30.8038 19.8177 30.7579 19.7942 30.7124C19.7783 30.6669 19.7562 30.621 19.7256 30.5755C19.695 30.5374 19.6648 30.4993 19.6342 30.4613C19.3525 30.1796 18.8349 30.1796 18.5532 30.4613C18.5226 30.4993 18.4846 30.5374 18.4618 30.5755C18.4312 30.621 18.4084 30.6669 18.3931 30.7124C18.3704 30.7579 18.3551 30.8038 18.3466 30.8494C18.3408 30.9027 18.3333 30.9561 18.3333 31.0016C18.3333 31.0471 18.3408 31.1005 18.3486 31.1538C18.3571 31.1994 18.3714 31.2452 18.3952 31.2908C18.4105 31.3363 18.4332 31.3822 18.4638 31.4277C18.4866 31.4658 18.5246 31.5038 18.5552 31.5419C18.698 31.6792 18.8968 31.7628 19.0945 31.7628C19.2923 31.7628 19.4904 31.6792 19.6349 31.5419Z" fill="#588157"/>
<path d="M22.5449 34.3842C22.5289 34.3386 22.5068 34.2927 22.4763 34.2472C22.4457 34.2091 22.4154 34.1711 22.3848 34.133C22.1718 33.92 21.8292 33.8591 21.555 33.9733C21.4561 34.0114 21.38 34.0647 21.3039 34.133C21.1662 34.2775 21.0833 34.4756 21.0833 34.6733C21.0833 34.7722 21.0986 34.8711 21.1442 34.9625C21.1822 35.0539 21.2356 35.1375 21.3039 35.2136C21.38 35.2823 21.4561 35.3353 21.555 35.3734C21.6467 35.4118 21.7456 35.4345 21.8445 35.4345C22.0423 35.4345 22.2404 35.3509 22.3848 35.2136C22.4535 35.1375 22.5065 35.0539 22.5445 34.9625C22.5829 34.8711 22.6057 34.7722 22.6057 34.6733C22.6057 34.62 22.5982 34.5744 22.5897 34.5211C22.5829 34.4756 22.5677 34.4297 22.5449 34.3842Z" fill="#588157"/>
<path d="M20.4373 26.7133C20.3918 26.6828 20.3459 26.66 20.3004 26.6447C20.2538 26.6219 20.209 26.6066 20.1556 26.5992C19.9127 26.5458 19.6456 26.6297 19.4712 26.8048C19.3329 26.9492 19.25 27.1473 19.25 27.3451C19.25 27.5507 19.3329 27.741 19.4709 27.8854C19.6146 28.0227 19.8134 28.1063 20.0112 28.1063C20.0567 28.1063 20.1101 28.0988 20.1549 28.091C20.2083 28.0835 20.2538 28.0682 20.2997 28.0454C20.3452 28.0301 20.3911 28.0074 20.4367 27.9768C20.4747 27.954 20.5135 27.916 20.5508 27.8854C20.5814 27.8473 20.6117 27.8093 20.6422 27.7712C20.6728 27.7257 20.6949 27.6798 20.7109 27.6343C20.7337 27.5887 20.7489 27.5428 20.7564 27.4973C20.7649 27.444 20.7724 27.3984 20.7724 27.3451C20.7724 27.1473 20.6888 26.9492 20.5515 26.8048C20.5135 26.7742 20.4747 26.7361 20.4373 26.7133Z" fill="#588157"/>
<path d="M32.3716 23.5834C32.2728 23.6215 32.1966 23.6748 32.1205 23.7431C31.9825 23.8879 31.8996 24.086 31.8996 24.2838C31.8996 24.4816 31.9825 24.6797 32.1205 24.8241C32.1966 24.8928 32.2728 24.9458 32.3716 24.9838C32.4631 25.0222 32.5619 25.045 32.6608 25.045C32.7597 25.045 32.8586 25.0222 32.95 24.9842C33.0489 24.9461 33.1243 24.8928 33.2011 24.8245C33.3384 24.6797 33.422 24.4816 33.422 24.2838C33.422 24.086 33.3384 23.8879 33.2011 23.7435C32.9881 23.5301 32.6449 23.4618 32.3716 23.5834Z" fill="#588157"/>
<path d="M30.0881 25.8671C29.9892 25.9052 29.913 25.9585 29.8369 26.0268C29.699 26.1716 29.616 26.3697 29.616 26.5675C29.616 26.6208 29.6235 26.6664 29.6313 26.7197C29.6398 26.7652 29.6541 26.8111 29.6779 26.8567C29.6932 26.9022 29.716 26.9481 29.7465 26.9936C29.7693 27.0317 29.8074 27.0697 29.8379 27.1078C29.9141 27.1764 29.9902 27.2294 30.0891 27.2675C30.1795 27.3059 30.2784 27.3287 30.3772 27.3287C30.575 27.3287 30.7731 27.2451 30.9176 27.1078C30.9481 27.0697 30.9784 27.0317 31.009 26.9936C31.0395 26.9481 31.0616 26.9022 31.0776 26.8566C31.1004 26.8111 31.1157 26.7652 31.1231 26.7197C31.131 26.6664 31.1384 26.6208 31.1384 26.5675C31.1384 26.3697 31.0548 26.1716 30.9176 26.0272C30.7045 25.8137 30.3613 25.7529 30.0881 25.8671Z" fill="#588157"/>
<path d="M26.4186 31.1503C26.3731 31.1578 26.3272 31.1731 26.2817 31.1958C26.2351 31.2111 26.1903 31.2339 26.1441 31.2645C26.106 31.2872 26.0679 31.3253 26.0305 31.3559C25.8926 31.5003 25.8097 31.6984 25.8097 31.8962C25.8097 31.9951 25.8324 32.094 25.8705 32.1854C25.9085 32.2843 25.9619 32.3604 26.0302 32.4365C26.1743 32.5738 26.3731 32.6574 26.5709 32.6574C26.7686 32.6574 26.9667 32.5738 27.1112 32.4365C27.1798 32.3604 27.2328 32.2843 27.2709 32.1854C27.3093 32.094 27.332 31.9951 27.332 31.8962C27.332 31.6984 27.2485 31.5003 27.1112 31.3559C26.9287 31.1805 26.6697 31.1044 26.4186 31.1503Z" fill="#588157"/>
<path d="M8.43695 31.4634C7.93843 32.1842 6.77997 33.9676 6.77997 34.9405C6.77997 36.1996 7.8045 37.2241 9.06356 37.2241C10.3226 37.2241 11.3472 36.1996 11.3472 34.9405C11.3472 33.9676 10.1887 32.1842 9.69018 31.4634C9.40474 31.0516 8.72237 31.0516 8.43695 31.4634ZM9.82476 34.9412C9.82476 35.3605 9.4829 35.7017 9.06356 35.7017C8.64355 35.7017 8.30237 35.3599 8.30237 34.9412C8.30848 34.7084 8.62519 34.0454 9.06356 33.307C9.50194 34.0448 9.81797 34.7078 9.82476 34.9412Z" fill="#588157"/>
<path d="M34.3177 31.4634C33.8192 32.1842 32.6607 33.9676 32.6607 34.9405C32.6607 36.1996 33.6853 37.2241 34.9443 37.2241C36.2034 37.2241 37.2279 36.1996 37.2279 34.9405C37.2279 33.9676 36.0695 32.1842 35.5709 31.4634C35.2855 31.0516 34.6031 31.0516 34.3177 31.4634ZM35.7055 34.9412C35.7055 35.3605 35.3637 35.7017 34.9443 35.7017C34.5243 35.7017 34.1831 35.3599 34.1831 34.9412C34.1892 34.7084 34.5059 34.0454 34.9443 33.307C35.3827 34.0448 35.6987 34.7078 35.7055 34.9412Z" fill="#588157"/>
<path d="M28.9893 35.2695C28.4908 35.9902 27.3323 37.7736 27.3323 38.7465C27.3323 40.0056 28.3569 41.0301 29.6159 41.0301C30.875 41.0301 31.8995 40.0056 31.8995 38.7465C31.8995 37.7736 30.7411 35.9902 30.2425 35.2695C29.9571 34.8576 29.2747 34.8576 28.9893 35.2695ZM30.3771 38.7472C30.3771 39.1666 30.0353 39.5078 29.6159 39.5078C29.1959 39.5078 28.8547 39.1659 28.8547 38.7472C28.8608 38.5145 29.1775 37.8515 29.6159 37.113C30.0543 37.8508 30.3703 38.5138 30.3771 38.7472Z" fill="#588157"/>
<path d="M14.3917 41.0301C15.6508 41.0301 16.6753 40.0056 16.6753 38.7465C16.6753 37.7736 15.5169 35.9902 15.0183 35.2695C14.7329 34.8576 14.0508 34.8576 13.7654 35.2695C13.2666 35.9902 12.1081 37.7736 12.1081 38.7465C12.1081 40.0056 13.1326 41.0301 14.3917 41.0301ZM14.3917 37.113C14.8301 37.8508 15.1461 38.5138 15.1529 38.7472C15.1529 39.1666 14.811 39.5078 14.3917 39.5078C13.9717 39.5078 13.6305 39.1659 13.6305 38.7472C13.6366 38.5145 13.9533 37.8515 14.3917 37.113Z" fill="#588157"/>
</svg>
