<svg width="24" height="24" viewBox="0 0 24 24" fill="none" xmlns="http://www.w3.org/2000/svg">
<path d="M16.8264 0.754213L14.128 0.75C11.0965 0.75 9.13738 2.70605 9.13738 5.73355V8.0313H6.42429C6.18985 8.0313 6 8.21627 6 8.44442V11.7736C6 12.0018 6.19007 12.1865 6.42429 12.1865H9.13738V20.5871C9.13738 20.8152 9.32722 21 9.56167 21H13.1015C13.3359 21 13.5258 20.815 13.5258 20.5871V12.1865H16.698C16.9324 12.1865 17.1223 12.0018 17.1223 11.7736L17.1236 8.44442C17.1236 8.33488 17.0788 8.22996 16.9993 8.15244C16.9199 8.07491 16.8116 8.0313 16.6991 8.0313H13.5258V6.08347C13.5258 5.14726 13.755 4.672 15.0082 4.672L16.8259 4.67137C17.0602 4.67137 17.25 4.4864 17.25 4.25846V1.16712C17.25 0.93939 17.0604 0.754635 16.8264 0.754213Z" fill="#475993"/>
</svg>
