<svg width="24" height="24" viewBox="0 0 24 24" fill="none" xmlns="http://www.w3.org/2000/svg">
<g clip-path="url(#clip0_50_4972)">
<path d="M16.5471 0.75H7.45287C3.75689 0.75 0.75 3.75689 0.75 7.45287V16.5471C0.75 20.2431 3.75689 23.25 7.45287 23.25H16.5471C20.2431 23.25 23.25 20.2431 23.25 16.5471V7.45287C23.25 3.75689 20.2431 0.75 16.5471 0.75ZM20.9865 16.5471C20.9865 18.9989 18.9989 20.9865 16.5471 20.9865H7.45287C5.00109 20.9865 3.0135 18.9989 3.0135 16.5471V7.45287C3.0135 5.00105 5.00109 3.0135 7.45287 3.0135H16.5471C18.9989 3.0135 20.9865 5.00105 20.9865 7.45287V16.5471Z" fill="white"/>
<path d="M16.5471 0.75H7.45287C3.75689 0.75 0.75 3.75689 0.75 7.45287V16.5471C0.75 20.2431 3.75689 23.25 7.45287 23.25H16.5471C20.2431 23.25 23.25 20.2431 23.25 16.5471V7.45287C23.25 3.75689 20.2431 0.75 16.5471 0.75ZM20.9865 16.5471C20.9865 18.9989 18.9989 20.9865 16.5471 20.9865H7.45287C5.00109 20.9865 3.0135 18.9989 3.0135 16.5471V7.45287C3.0135 5.00105 5.00109 3.0135 7.45287 3.0135H16.5471C18.9989 3.0135 20.9865 5.00105 20.9865 7.45287V16.5471Z" fill="url(#paint0_linear_50_4972)"/>
<path d="M12 6C8.69159 6 6 8.6916 6 12C6 15.3084 8.69159 18 12 18C15.3084 18 18 15.3084 18 12C18 8.69156 15.3084 6 12 6ZM12 15.6662C9.97519 15.6662 8.33378 14.0248 8.33378 12C8.33378 9.9752 9.97523 8.33379 12 8.33379C14.0248 8.33379 15.6662 9.9752 15.6662 12C15.6662 14.0248 14.0248 15.6662 12 15.6662Z" fill="white"/>
<path d="M12 6C8.69159 6 6 8.6916 6 12C6 15.3084 8.69159 18 12 18C15.3084 18 18 15.3084 18 12C18 8.69156 15.3084 6 12 6ZM12 15.6662C9.97519 15.6662 8.33378 14.0248 8.33378 12C8.33378 9.9752 9.97523 8.33379 12 8.33379C14.0248 8.33379 15.6662 9.9752 15.6662 12C15.6662 14.0248 14.0248 15.6662 12 15.6662Z" fill="url(#paint1_linear_50_4972)"/>
<path d="M18.375 6.75C18.9963 6.75 19.5 6.24632 19.5 5.625C19.5 5.00368 18.9963 4.5 18.375 4.5C17.7537 4.5 17.25 5.00368 17.25 5.625C17.25 6.24632 17.7537 6.75 18.375 6.75Z" fill="white"/>
<path d="M18.375 6.75C18.9963 6.75 19.5 6.24632 19.5 5.625C19.5 5.00368 18.9963 4.5 18.375 4.5C17.7537 4.5 17.25 5.00368 17.25 5.625C17.25 6.24632 17.7537 6.75 18.375 6.75Z" fill="url(#paint2_linear_50_4972)"/>
</g>
<defs>
<linearGradient id="paint0_linear_50_4972" x1="12" y1="23.1845" x2="12" y2="0.924761" gradientUnits="userSpaceOnUse">
<stop stop-color="#E09B3D"/>
<stop offset="0.3" stop-color="#C74C4D"/>
<stop offset="0.6" stop-color="#C21975"/>
<stop offset="1" stop-color="#7024C4"/>
</linearGradient>
<linearGradient id="paint1_linear_50_4972" x1="12" y1="17.9651" x2="12" y2="6.09321" gradientUnits="userSpaceOnUse">
<stop stop-color="#E09B3D"/>
<stop offset="0.3" stop-color="#C74C4D"/>
<stop offset="0.6" stop-color="#C21975"/>
<stop offset="1" stop-color="#7024C4"/>
</linearGradient>
<linearGradient id="paint2_linear_50_4972" x1="18.375" y1="6.74345" x2="18.375" y2="4.51748" gradientUnits="userSpaceOnUse">
<stop stop-color="#E09B3D"/>
<stop offset="0.3" stop-color="#C74C4D"/>
<stop offset="0.6" stop-color="#C21975"/>
<stop offset="1" stop-color="#7024C4"/>
</linearGradient>
<clipPath id="clip0_50_4972">
<rect width="24" height="24" fill="white"/>
</clipPath>
</defs>
</svg>
