<svg width="24" height="24" viewBox="0 0 24 24" fill="none" xmlns="http://www.w3.org/2000/svg">
<path d="M10.8933 16.2467C9.15044 16.0757 7.57896 15.6719 6.23353 14.6819C6.06659 14.5587 5.89423 14.44 5.74189 14.3024C5.153 13.7703 5.09366 13.1609 5.55964 12.5329C5.95828 11.9955 6.62746 11.8517 7.32302 12.1603C7.4577 12.2201 7.58603 12.2948 7.70894 12.3749C10.2164 13.9958 13.661 14.0406 16.1778 12.4478C16.4272 12.268 16.6937 12.1213 17.0026 12.0464C17.6033 11.9013 18.1635 12.1089 18.4858 12.6033C18.8541 13.168 18.8494 13.7192 18.3956 14.1575C17.6996 14.8297 16.8625 15.3159 15.9325 15.6553C15.053 15.976 14.0897 16.1375 13.1363 16.2447C13.2802 16.3921 13.348 16.4645 13.438 16.5496C14.7325 17.7733 16.0328 18.9919 17.3231 20.2193C17.7627 20.6376 17.8545 21.1562 17.6125 21.6426C17.3478 22.1743 16.7554 22.5241 16.1745 22.4866C15.8065 22.4627 15.5195 22.2904 15.2645 22.0487C14.2875 21.1238 13.2922 20.216 12.3351 19.2736C12.0565 18.9996 11.9225 19.0515 11.6767 19.2894C10.6939 20.2413 9.69506 21.1785 8.69035 22.1105C8.2392 22.5289 7.70235 22.6043 7.17915 22.3652C6.62299 22.1116 6.26909 21.5775 6.2964 21.0407C6.31524 20.6777 6.50502 20.4003 6.76992 20.1515C8.05107 18.948 9.32868 17.7414 10.6068 16.5358C10.6913 16.4556 10.7702 16.3706 10.8933 16.2467Z" fill="#EE8208"/>
<path d="M11.956 12C8.673 11.9895 5.98096 9.44127 6.0001 6.36254C6.019 3.24983 8.71278 0.741409 12.0281 0.750022C15.3501 0.758402 18.0166 3.3029 17.9999 6.44797C17.983 9.52041 15.2723 12.0107 11.956 12ZM14.9397 6.36999C14.934 4.84133 13.6337 3.62437 12.0042 3.62297C10.3611 3.62134 9.04916 4.86042 9.06184 6.40304C9.07402 7.92588 10.3855 9.13423 12.0194 9.12864C13.6484 9.12329 14.9451 7.89841 14.9397 6.36999Z" fill="#EE8208"/>
</svg>
