<svg width="56" height="56" viewBox="0 0 56 56" fill="none" xmlns="http://www.w3.org/2000/svg">
<path fill-rule="evenodd" clip-rule="evenodd" d="M47.3023 34.6582C51.8439 33.1603 51.8439 30.9964 47.3023 29.4982C42.5083 27.9168 34.6027 27.9168 29.7244 29.4982C28.2947 29.9975 27.2855 30.4969 26.6966 31.1628H26.7807L26.2762 32.0783C26.2762 32.9939 27.6218 33.9092 29.7245 34.6582C34.6025 36.2396 42.5079 36.2396 47.3023 34.6582L47.3023 34.6582ZM8.69901 18.596C13.493 20.1774 21.3986 20.1774 26.2769 18.596C30.8184 17.0981 30.8184 14.9343 26.2769 13.436C21.3988 11.8547 13.4934 11.8547 8.69901 13.436C6.5964 14.1851 5.25071 15.1006 5.25071 16.0159C5.25071 17.0146 6.5964 17.8468 8.69901 18.5957V18.596ZM8.69901 22.5075C13.493 24.1721 21.3986 24.1721 26.2769 22.5075C28.3795 21.8417 29.6411 20.9261 29.6411 20.0108V17.6805C27.2862 19.9275 21.3992 20.5933 17.4459 20.5933C13.5771 20.5933 7.60559 19.9274 5.25065 17.6805V20.0108C5.25065 20.9264 6.5964 21.8417 8.69901 22.5075ZM8.69901 26.5022C13.493 28.0836 21.3986 28.0836 26.2769 26.5022C28.3795 25.8363 29.6411 24.9208 29.6411 23.9223V21.6753C27.2862 23.8392 21.3992 24.5881 17.4459 24.5881C13.5771 24.5881 7.60559 23.8391 5.25065 21.6753V23.9223C5.25065 24.921 6.5964 25.8364 8.69901 26.5022ZM8.69901 30.4968C13.3246 31.9948 21.2303 32.0782 26.2769 30.4968C27.0338 29.7478 28.2111 29.1652 29.6411 28.6659V25.5866C27.2862 27.8335 21.3992 28.4993 17.4459 28.4993C13.5771 28.4993 7.60559 27.8335 5.25065 25.5866V27.9169C5.25065 28.8324 6.59634 29.7478 8.69895 30.4967L8.69901 30.4968ZM8.69901 34.4083C13.1566 35.9062 20.473 35.9897 25.4351 34.658L25.5192 31.4955C20.473 32.9103 13.0717 32.744 8.36186 31.2458C7.01617 30.8297 5.92288 30.247 5.25 29.5812V31.8282C5.25 32.8269 6.59569 33.7422 8.6983 34.408L8.69901 34.4083ZM25.4351 38.6527V35.4902C20.389 36.905 13.0722 36.7386 8.36231 35.2404C7.01662 34.7412 5.92333 34.1585 5.25045 33.4927V35.823C5.25045 36.7386 6.59614 37.6539 8.69875 38.4029C13.1563 39.9008 20.4728 39.9843 25.4349 38.6526L25.4351 38.6527ZM50.7499 37.7371C48.3949 39.9009 42.4234 40.6499 38.5546 40.6499C34.6019 40.6499 28.6305 39.9009 26.2756 37.7371V39.9841C26.2756 40.9828 27.6212 41.815 29.7239 42.564C34.6019 44.1453 42.5073 44.1453 47.3017 42.564C49.4043 41.8149 50.75 40.9826 50.75 39.9841L50.7499 37.7371ZM50.7499 33.7425C48.3949 35.9895 42.4234 36.6553 38.5546 36.6553C34.6019 36.6553 28.6305 35.9894 26.2756 33.7425V35.9895C26.2756 36.9882 27.6212 37.9035 29.7239 38.5693C34.6019 40.1507 42.5073 40.1507 47.3017 38.5693C49.4043 37.9035 50.75 36.9879 50.75 35.9895L50.7499 33.7425Z" fill="#588157"/>
</svg>
