<svg width="56" height="56" viewBox="0 0 56 56" fill="none" xmlns="http://www.w3.org/2000/svg">
<path fill-rule="evenodd" clip-rule="evenodd" d="M39.633 26.2214C45.3855 24.2808 45.3855 21.4775 39.633 19.5365C33.5608 17.4878 23.5473 17.4878 17.3684 19.5365C15.5575 20.1833 14.2792 20.8304 13.5333 21.693H13.6398L13.0008 22.8791C13.0008 24.0652 14.7053 25.2511 17.3685 26.2213C23.5471 28.2701 33.5604 28.2702 39.633 26.2214ZM43.9998 30.2102C41.017 33.0135 33.4533 33.9838 28.553 33.9838C23.5464 33.9838 15.9828 33.0134 13 30.2102V33.1212C13 34.4151 14.7045 35.4932 17.3677 36.4635C23.5463 38.5122 33.5596 38.5122 39.6323 36.4635C42.2955 35.4931 44 34.4147 44 33.1212L43.9998 30.2102ZM43.9998 25.0351C41.017 27.9461 33.4533 28.8086 28.553 28.8086C23.5464 28.8086 15.9828 27.946 13 25.0351V27.9461C13 29.2399 14.7045 30.4258 17.3677 31.2883C23.5463 33.337 33.5596 33.337 39.6323 31.2883C42.2955 30.4257 44 29.2396 44 27.9461L43.9998 25.0351Z" fill="#588157"/>
</svg>
