<svg width="40" height="40" viewBox="0 0 40 40" fill="none" xmlns="http://www.w3.org/2000/svg">
<path fill-rule="evenodd" clip-rule="evenodd" d="M25.0156 22H15.0156C11.1496 22 8.01562 25.1339 8.01562 29V31C8.01562 31.796 8.33259 32.5589 8.89465 33.121C9.4576 33.6839 10.2205 34 11.0156 34H29.0156C29.8116 34 30.5745 33.6839 31.1375 33.121C31.6996 32.5589 32.0156 31.7959 32.0156 31V29C32.0156 25.1339 28.8815 22 25.0156 22ZM20.0156 6C16.1525 6 13.0156 9.13703 13.0156 13C13.0156 16.863 16.1525 20 20.0156 20C23.8795 20 27.0156 16.863 27.0156 13C27.0156 9.13703 23.8795 6 20.0156 6Z" fill="#588157"/>
</svg>
