<svg width="24" height="24" viewBox="0 0 24 24" fill="none" xmlns="http://www.w3.org/2000/svg">
<path d="M23.8727 17.6355C23.8437 17.5728 23.8166 17.5207 23.7914 17.4791C23.375 16.7279 22.5793 15.806 21.4047 14.713L21.3799 14.688L21.3675 14.6757L21.3549 14.6631H21.3423C20.8092 14.1541 20.4716 13.8119 20.3303 13.6367C20.0716 13.303 20.0137 12.9651 20.155 12.6228C20.2549 12.3642 20.6301 11.818 21.2797 10.9835C21.6213 10.5413 21.892 10.1868 22.0918 9.91979C23.5331 8.0007 24.1579 6.77438 23.9662 6.24034L23.8918 6.11555C23.8418 6.04041 23.7127 5.97168 23.5046 5.909C23.2961 5.84644 23.0296 5.8361 22.7047 5.87779L19.106 5.90268C19.0477 5.88199 18.9644 5.88392 18.856 5.909C18.7477 5.93407 18.6935 5.94665 18.6935 5.94665L18.6308 5.97799L18.5811 6.01565C18.5395 6.04054 18.4936 6.08434 18.4436 6.14693C18.3938 6.20931 18.3522 6.28251 18.319 6.36593C17.9272 7.37549 17.4817 8.31412 16.9817 9.18179C16.6735 9.69917 16.3904 10.1476 16.1319 10.5272C15.8737 10.9067 15.6571 11.1864 15.4823 11.3656C15.3072 11.545 15.1492 11.6887 15.0073 11.7973C14.8657 11.9059 14.7575 11.9518 14.6826 11.9351C14.6076 11.9183 14.5369 11.9016 14.47 11.8849C14.3534 11.8098 14.2597 11.7076 14.189 11.5783C14.118 11.449 14.0702 11.2863 14.0452 11.0902C14.0203 10.894 14.0056 10.7252 14.0014 10.5833C13.9975 10.4416 13.9993 10.2411 14.0078 9.98252C14.0164 9.72376 14.0203 9.54869 14.0203 9.4569C14.0203 9.1398 14.0265 8.79565 14.0389 8.42437C14.0515 8.05309 14.0617 7.75891 14.0702 7.54219C14.0787 7.32525 14.0827 7.09574 14.0827 6.85377C14.0827 6.6118 14.068 6.42204 14.0389 6.28431C14.0102 6.14676 13.9661 6.01324 13.908 5.88379C13.8496 5.75448 13.7641 5.65445 13.6519 5.58343C13.5394 5.51251 13.3996 5.45623 13.2333 5.41441C12.7917 5.31433 12.2294 5.2602 11.5462 5.25178C9.99681 5.23512 9.00124 5.33533 8.55972 5.55227C8.38478 5.64393 8.22648 5.76916 8.08493 5.92758C7.93495 6.11121 7.91402 6.21141 8.0223 6.22789C8.52221 6.3029 8.87611 6.48231 9.0844 6.76597L9.15946 6.91628C9.21784 7.02472 9.27614 7.21672 9.33448 7.492C9.39273 7.76728 9.43033 8.0718 9.44687 8.40539C9.48845 9.01456 9.48845 9.53602 9.44687 9.96981C9.40516 10.4038 9.36577 10.7416 9.32818 10.9836C9.29058 11.2255 9.23439 11.4216 9.15946 11.5718C9.0844 11.7219 9.03446 11.8137 9.00942 11.847C8.98443 11.8803 8.9636 11.9013 8.94706 11.9096C8.83878 11.9511 8.72616 11.9723 8.60961 11.9723C8.49289 11.9723 8.35134 11.9138 8.18477 11.797C8.01823 11.6801 7.8454 11.5196 7.66626 11.3151C7.48712 11.1107 7.28509 10.8249 7.06009 10.4578C6.83526 10.0907 6.60198 9.65692 6.36039 9.15632L6.1605 8.79328C6.03555 8.55973 5.86486 8.21966 5.64825 7.77338C5.43152 7.32692 5.23995 6.89506 5.07342 6.47788C5.00685 6.30268 4.90684 6.16929 4.77357 6.0775L4.71103 6.03984C4.66945 6.00653 4.60271 5.97115 4.51115 5.93346C4.41945 5.8958 4.32378 5.8688 4.22373 5.85219L0.799884 5.87708C0.450012 5.87708 0.21262 5.95647 0.0876214 6.11502L0.0375958 6.19002C0.0126049 6.23179 0 6.29851 0 6.39035C0 6.48214 0.0249909 6.59479 0.0750165 6.72818C0.574835 7.90471 1.11838 9.03937 1.70564 10.1323C2.29291 11.2253 2.80323 12.1057 3.2363 12.7728C3.66946 13.4404 4.11098 14.0704 4.56086 14.6626C5.01075 15.2551 5.30854 15.6347 5.45424 15.8015C5.60011 15.9686 5.71469 16.0935 5.79798 16.1769L6.11043 16.4773C6.31036 16.6775 6.60395 16.9174 6.99133 17.1968C7.3788 17.4765 7.80776 17.7518 8.27843 18.0231C8.74919 18.2941 9.29684 18.5152 9.9217 18.6862C10.5465 18.8574 11.1546 18.926 11.7461 18.8929H13.1831C13.4746 18.8677 13.6954 18.7759 13.8455 18.6175L13.8952 18.5548C13.9286 18.505 13.9599 18.4276 13.9888 18.3235C14.018 18.2192 14.0326 18.1043 14.0326 17.9793C14.024 17.6206 14.0513 17.2974 14.1136 17.0095C14.1759 16.7218 14.2469 16.5049 14.3263 16.3588C14.4056 16.2128 14.4952 16.0896 14.5948 15.9898C14.6947 15.8897 14.7659 15.8291 14.8076 15.8082C14.8491 15.7872 14.8822 15.773 14.9072 15.7644C15.1072 15.6977 15.3425 15.7623 15.6135 15.9586C15.8842 16.1546 16.1382 16.3967 16.3758 16.6845C16.6132 16.9725 16.8985 17.2956 17.2317 17.6543C17.565 18.0131 17.8565 18.2798 18.1063 18.4553L18.3562 18.6055C18.523 18.7057 18.7396 18.7975 19.0062 18.8809C19.2724 18.9643 19.5056 18.9851 19.7058 18.9434L22.9046 18.8935C23.221 18.8935 23.4672 18.841 23.6418 18.7369C23.8168 18.6326 23.9207 18.5177 23.9543 18.3928C23.9877 18.2676 23.9895 18.1257 23.9606 17.967C23.931 17.8087 23.9018 17.6981 23.8727 17.6355Z" fill="#2787F5"/>
</svg>
