<svg width="24" height="24" viewBox="0 0 24 24" fill="none" xmlns="http://www.w3.org/2000/svg">
<path fill-rule="evenodd" clip-rule="evenodd" d="M22.8 4.35C23.5034 5.12725 23.7517 6.88636 23.7517 6.88636C23.7517 6.88636 24 8.97274 24 11.0591V12.9818C24 15.0273 23.7517 17.1136 23.7517 17.1136C23.7517 17.1136 23.5035 18.8727 22.8 19.65C21.9343 20.5837 20.9562 20.6665 20.471 20.7075C20.446 20.7096 20.4223 20.7116 20.4 20.7137C17.0483 21 12 21 12 21C12 21 5.7517 20.9591 3.8483 20.7546C3.74715 20.7315 3.6226 20.7142 3.48097 20.6946C2.86934 20.6096 1.93919 20.4805 1.2 19.65C0.496594 18.8728 0.248297 17.1137 0.248297 17.1137C0.248297 17.1137 0 15.0682 0 12.9819V11.0591C0 8.97274 0.248297 6.88636 0.248297 6.88636C0.248297 6.88636 0.455156 5.1273 1.2 4.35C2.06575 3.4163 3.04375 3.33354 3.52899 3.29248C3.554 3.29036 3.57769 3.28835 3.6 3.28635C6.9517 3.04092 12 3 12 3C12 3 17.0483 3.04092 20.4 3.28635C20.4346 3.28946 20.4725 3.29233 20.5134 3.29543C21.0115 3.33317 21.9588 3.40492 22.8 4.35ZM9 16.5V7.5L16.5 12.1037L9 16.5Z" fill="#D8362A"/>
</svg>
