<?xml version="1.0" encoding="utf-8"?><svg xmlns="http://www.w3.org/2000/svg" xmlns:xlink="http://www.w3.org/1999/xlink"><symbol viewBox="0 0 14 14" id="dropdown-arrow" xmlns="http://www.w3.org/2000/svg"><path fill-rule="evenodd" clip-rule="evenodd" d="M10.828 4.567L7 7.629 3.172 4.567a.875.875 0 10-1.094 1.367l4.375 3.5a.875.875 0 001.094 0l4.375-3.5a.875.875 0 00-1.094-1.367z"/></symbol><symbol viewBox="0 0 80 80" id="modal-check" xmlns="http://www.w3.org/2000/svg"><path fill-rule="evenodd" clip-rule="evenodd" d="M61.464 16.465L30 47.93 18.534 36.465a5 5 0 00-7.07 7.07l15 15a5 5 0 007.07 0l35-35a5 5 0 00-7.07-7.07z"/></symbol><symbol viewBox="0 0 16 16" id="modal-close" xmlns="http://www.w3.org/2000/svg"><path d="M9.061 8l4.72-4.719a.75.75 0 10-1.062-1.061L8 6.939l-4.719-4.72A.75.75 0 102.22 3.282l4.719 4.72-4.72 4.718a.75.75 0 101.062 1.061l4.72-4.719 4.718 4.72a.748.748 0 001.061 0 .75.75 0 000-1.062L9.061 8z"/></symbol><symbol viewBox="0 0 24 24" id="phone-icon" xmlns="http://www.w3.org/2000/svg"><path fill-rule="evenodd" clip-rule="evenodd" d="M14.356 2.008a.817.817 0 00-.626.176.853.853 0 00-.322.584.86.86 0 00.757.95 6.912 6.912 0 016.125 6.139.857.857 0 101.704-.192c-.454-4.058-3.594-7.206-7.638-7.657zm.062 3.482a.854.854 0 00-1.004.68.862.862 0 00.677 1.01 3.462 3.462 0 012.744 2.75.86.86 0 001.006.681.865.865 0 00.677-1.01 5.174 5.174 0 00-4.1-4.111zM16 15.09c.451-.26.962-.554 1.605-.417.582.123 2.568 1.735 3.112 2.293.356.366.555.744.585 1.122.054 1.482-1.96 3.174-2.326 3.384a2.825 2.825 0 01-1.69.528c-.65 0-1.375-.185-2.166-.554-4.29-1.79-10.844-8.215-12.577-12.472-.72-1.585-.724-2.892-.012-3.874.284-.461 1.902-2.387 3.35-2.326.386.033.76.231 1.128.59.556.545 2.128 2.537 2.249 3.122.134.65-.16 1.166-.422 1.62a7.681 7.681 0 01-.214.34c-.313.48-.73 1.121-.582 1.53 1.057 2.594 3.498 4.858 6.093 5.921.401.146 1.042-.274 1.521-.588a7.89 7.89 0 01.335-.212L16 15.09z"/></symbol><symbol viewBox="0 0 18 22" id="play" xmlns="http://www.w3.org/2000/svg"><path d="M18 11L0 21.392V.608L18 11z"/></symbol><symbol viewBox="0 0 16 16" id="swiper-next" xmlns="http://www.w3.org/2000/svg"><path fill-rule="evenodd" clip-rule="evenodd" d="M5.22 3.625L8.72 8l-3.5 4.375a1 1 0 001.561 1.25l4-5a1 1 0 000-1.25l-4-5a1 1 0 10-1.562 1.25z"/></symbol><symbol viewBox="0 0 16 16" id="swiper-prev" xmlns="http://www.w3.org/2000/svg"><path fill-rule="evenodd" clip-rule="evenodd" d="M10.78 12.375L7.28 8l3.5-4.375a1 1 0 00-1.561-1.25l-4 5a1 1 0 000 1.25l4 5a1 1 0 001.562-1.25z"/></symbol><symbol viewBox="0 0 16 16" id="telegram" xmlns="http://www.w3.org/2000/svg"><path d="M6.092 9.766l-.206 2.867c.295 0 .422-.125.576-.276l1.383-1.306 2.866 2.074c.526.29.896.137 1.038-.478l1.882-8.712c.167-.768-.28-1.069-.793-.88L1.778 7.239c-.754.29-.743.705-.128.893l2.828.87 6.567-4.061c.31-.203.59-.09.36.112L6.091 9.765z"/></symbol><symbol viewBox="0 0 16 16" id="viber" xmlns="http://www.w3.org/2000/svg"><g clip-path="url(#iclip0_204_5744)"><path d="M12.372 3.275c-.29-.268-1.47-1.125-4.096-1.136 0 0-3.096-.188-4.606 1.197-.84.84-1.136 2.068-1.167 3.594-.03 1.523-.07 4.38 2.684 5.155h.002l-.002 1.18s-.017.48.298.576c.38.117.605-.246.97-.639.199-.216.473-.53.682-.772 1.883.157 3.332-.204 3.496-.258.38-.125 2.533-.4 2.883-3.256.361-2.94-.176-4.8-1.144-5.641zm.32 5.434c-.296 2.385-2.04 2.536-2.362 2.639-.136.044-1.408.361-3.01.256 0 0-1.192 1.439-1.563 1.812-.059.059-.127.082-.171.07-.064-.016-.082-.091-.08-.201l.01-1.965c-.003 0-.003 0 0 0-2.332-.646-2.196-3.078-2.17-4.35.026-1.273.265-2.317.977-3.02 1.274-1.154 3.906-.983 3.906-.983 2.22.01 3.284.679 3.53.902.82.704 1.238 2.382.933 4.84z"/><path d="M9.358 7.014a.149.149 0 01-.148-.14c-.026-.505-.263-.752-.746-.778a.15.15 0 01.016-.298c.639.036.996.402 1.028 1.06a.146.146 0 01-.14.154l-.01.002z"/><path d="M10.119 7.268h-.003a.15.15 0 01-.145-.153c.012-.507-.134-.918-.444-1.256-.307-.338-.732-.52-1.293-.56a.148.148 0 01-.136-.16.148.148 0 01.16-.136c.633.047 1.133.267 1.49.657.359.392.533.883.521 1.462a.15.15 0 01-.15.146z"/><path d="M10.898 7.573a.147.147 0 01-.148-.148c-.007-.908-.267-1.6-.798-2.12-.523-.511-1.188-.772-1.97-.779a.15.15 0 010-.298c.862.007 1.594.296 2.174.864.582.568.88 1.352.89 2.328a.147.147 0 01-.148.153c.002 0 .002 0 0 0zM8.499 8.852s.209.02.322-.12l.218-.274c.106-.136.361-.223.61-.084a6.1 6.1 0 01.545.347c.167.122.505.404.507.406.162.136.2.336.09.55v.004a2.29 2.29 0 01-.456.561c-.003 0-.003.002-.005.002-.157.132-.312.207-.462.223-.02.005-.04.005-.069.005a.64.64 0 01-.197-.03l-.004-.007c-.235-.066-.625-.23-1.273-.59a7.556 7.556 0 01-1.07-.706 5.483 5.483 0 01-.481-.427l-.017-.017-.016-.016a12.725 12.725 0 00-.017-.017l-.016-.016a5.891 5.891 0 01-.427-.481 7.423 7.423 0 01-.707-1.07c-.36-.651-.524-1.04-.59-1.273l-.006-.005a.64.64 0 01-.03-.197c0-.028 0-.05.004-.068a.916.916 0 01.223-.463l.002-.004c.174-.193.362-.343.561-.456h.005c.211-.11.41-.073.55.09 0 0 .283.34.405.507.115.157.27.406.348.544.138.249.051.505-.085.61l-.274.219c-.139.112-.12.321-.12.321s.406 1.545 1.932 1.932z"/></g><defs><clipPath id="iclip0_204_5744"><path transform="translate(2.13 2.13)" d="M0 0h11.733v11.733H0z"/></clipPath></defs></symbol><symbol viewBox="0 0 16 16" id="whatsapp" xmlns="http://www.w3.org/2000/svg"><g clip-path="url(#jclip0_204_5743)"><path d="M12.4 3.619a6.095 6.095 0 00-4.35-1.807c-3.439 0-6.204 2.777-6.17 6.155 0 1.07.303 2.107.81 3.043l-.877 3.178 3.27-.837a6.06 6.06 0 002.934.736c3.405 0 6.17-2.776 6.17-6.154 0-1.639-.64-3.177-1.787-4.314zM8.05 13.05c-.91 0-1.82-.234-2.596-.702l-.202-.1-1.956.501.506-1.906-.135-.2c-1.484-2.375-.775-5.52 1.652-6.991 2.428-1.472 5.564-.77 7.048 1.639 1.483 2.408.775 5.518-1.653 6.99-.775.502-1.72.77-2.663.77zm2.968-3.712l-.371-.167s-.54-.235-.877-.402c-.033 0-.067-.033-.1-.033-.102 0-.17.033-.237.067 0 0-.034.033-.506.568a.186.186 0 01-.168.1h-.034a.257.257 0 01-.135-.066l-.169-.067c-.37-.167-.708-.368-.977-.636-.068-.067-.169-.133-.236-.2a3.74 3.74 0 01-.641-.803l-.034-.067C6.5 7.6 6.5 7.565 6.466 7.498c0-.067 0-.133.033-.167 0 0 .135-.167.237-.267.067-.067.1-.168.168-.235.068-.1.101-.234.068-.334-.034-.167-.439-1.07-.54-1.271a.39.39 0 00-.236-.167h-.371c-.067 0-.135.033-.202.033l-.034.034c-.067.033-.135.1-.202.133-.068.067-.101.134-.169.201-.236.301-.37.669-.37 1.037 0 .268.067.535.168.77l.034.1A5.574 5.574 0 006.297 9.07l.135.134c.101.1.202.167.27.268a6.043 6.043 0 002.428 1.27c.1.034.236.034.337.067h.337c.169 0 .37-.066.506-.133.1-.067.168-.067.236-.134l.067-.067c.068-.067.135-.1.203-.167.067-.067.134-.134.168-.2.068-.135.101-.302.135-.47v-.233s-.034-.034-.101-.067z"/></g><defs><clipPath id="jclip0_204_5743"><path transform="translate(1.4 1.4)" d="M0 0h13.2v13.2H0z"/></clipPath></defs></symbol></svg>